<?xml version="1.0" encoding="UTF-8"?>
<svg width="59px" height="60px" viewBox="0 0 59 60" version="1.1" xmlns="http://www.w3.org/2000/svg" xmlns:xlink="http://www.w3.org/1999/xlink">
    <!-- Generator: Sketch 52.6 (67491) - http://www.bohemiancoding.com/sketch -->
    <title>Logo</title>
    <desc>Created with Sketch.</desc>
    <g id="Page-1" stroke="none" stroke-width="1" fill="none" fill-rule="evenodd">
        <g id="Logo">
            <circle id="Oval" fill="#FFFFFF" cx="29.5" cy="30" r="29.5"></circle>
            <g id="Circle" transform="translate(0.000000, 0.638298)" fill-rule="nonzero">
                <path d="M29.5701587,30.9855319 C31.968637,29.2442553 34.7211152,28.2331915 37.8250283,27.9523404 C40.3376587,27.7276596 42.1140717,28.4297872 43.1593978,30.0587234 C43.5262239,31.1259574 43.2722674,31.7846809 42.3962457,32.0387234 C41.6625935,32.1510638 41.1828978,31.7157447 40.9571587,30.732766 C40.8725065,30.3957447 40.7327022,30.1991489 40.5338978,30.1429787 C39.6309413,29.8059574 38.6997674,29.6374468 37.7403761,29.6374468 C34.889137,29.6374468 32.4060065,30.8310638 30.2909848,33.2182979 C29.0199196,34.6519149 28.3850283,36.1812766 28.3850283,37.8114894 C28.3850283,38.232766 28.441463,38.652766 28.5543326,39.0740426 C28.6954196,39.7493617 29.0340283,40.3595745 29.5701587,40.907234 C30.1062891,41.4548936 30.6860283,41.7995745 31.3055283,41.94 C31.6723543,42.0242553 32.0263543,42.066383 32.3636804,42.066383 C33.2679196,42.066383 33.9169196,41.7714894 34.3106804,41.1817021 C34.1426587,38.8225532 34.889137,37.2217021 36.5552457,36.3791489 C37.0067239,36.1531915 37.4017674,36.0408511 37.7403761,36.0408511 C38.02255,36.0408511 38.2906152,36.1110638 38.5445717,36.2514894 C38.854963,36.7570213 39.0101587,37.3059574 39.0101587,37.8957447 C39.0101587,38.5965957 38.6574413,39.6229787 37.9520065,40.9710638 C37.7455065,41.2646809 37.6044196,41.7434043 37.527463,42.4659574 C36.5911587,42.6753191 35.6484413,42.8374468 34.7211152,42.9510638 C31.9801804,43.2855319 28.7326152,43.2459574 26.0660717,42.1276596 C25.2695717,41.2634043 24.8706804,40.2178723 24.8706804,38.9910638 C24.8706804,38.7370213 24.8988978,38.4714894 24.9553326,38.1906383 C25.3503761,35.3246809 26.8895065,32.9234043 29.5701587,30.9855319 M37.232463,37.98 C36.4321152,37.8382979 36.4757239,39.18 36.5796152,40.0251064 C36.9746587,39.4353191 37.4633326,38.5468085 37.3594413,38.232766 C37.3158326,38.0987234 37.3196804,37.9953191 37.232463,37.98 M58.0620283,29.472766 C58.0620283,15.0217021 47.2278326,3.08297872 33.2037891,1.26765957 C33.9182022,2.27489362 34.2132022,3.8093617 34.0887891,5.87234043 C33.7783978,10.5625532 32.3098109,15.8004255 29.6855935,21.5885106 C27.202463,27.0931915 24.09855,31.8548936 20.3725717,35.8710638 C22.2182457,46.1208511 35.5920065,44.6106383 42.8695283,41.4523404 C43.1837674,41.3157447 43.3774413,41.6348936 43.3774413,42.1685106 C43.3774413,42.5897872 43.1773543,42.7646809 42.8695283,42.9268085 C41.3509196,43.7285106 39.4718978,44.3961702 37.426137,44.8582979 C37.5479848,47.3680851 37.9186587,51.5782979 38.4278543,56.4970213 C49.8302457,52.7591489 58.0620283,42.0714894 58.0620283,29.472766" id="Fill-3" fill="#7F7F7F"></path>
                <path d="M24.0984217,27.7391489 C28.614487,19.7361702 30.9565304,11.6859574 31.1258348,4.60851064 C31.0399,4.01744681 31.0488783,3.38425532 30.8295522,2.79574468 C30.5063348,1.93148936 30.4332261,1.70170213 29.9817478,1.36340426 C29.4174,1.22297872 29.0364652,1.19489362 28.8389435,1.27914894 C25.9607696,3.58212766 23.8021391,7.13617021 22.3617696,11.94 C20.2454652,17.3885106 19.2386174,24.0459574 19.2296391,31.9097872 C19.2296391,32.3846809 19.836313,32.9885106 20.118487,32.7944681 C20.8700957,32.2812766 22.1219217,30.4914894 24.0984217,27.7391489 M18.0021826,39.1148936 C16.0372261,34.7897872 15.8858783,31.7425532 15.8858783,29.3821277 C15.8858783,29.3821277 15.8371391,27.246383 15.8807478,26.3757447 C15.9140957,25.7195745 15.9179435,25.1553191 15.9679652,24.9268085 L16.0551826,23.8634043 C17.3134217,13.4974468 20.6943783,5.94765957 26.2070304,1.21276596 C11.9675087,2.83148936 0.905008696,14.8685106 0.905008696,29.472766 C0.905008696,45.1812766 13.7028783,57.9191489 29.482813,57.9191489 C31.4644435,57.9191489 33.3986174,57.7187234 35.2660957,57.3357447 C34.5888783,56.5187234 33.819313,55.4744681 32.9574,54.2017021 C31.3477261,51.8131915 29.9086391,50.2825532 28.6388565,49.6085106 C28.1873783,49.2434043 27.5383783,48.6676596 26.6918565,47.88 C26.0146391,47.2340426 25.6760304,46.5459574 25.6760304,45.8157447 C25.6760304,45.7417021 25.6785957,45.6651064 25.6850087,45.5885106 C26.3981391,45.7685106 27.1253783,45.9051064 27.8539,46.007234 C27.9180304,46.1131915 28.0103783,46.2319149 28.1309435,46.3634043 C29.2596391,47.1510638 30.5307043,48.3574468 31.9402913,49.9876596 C32.0826609,50.1561702 33.2113565,51.5604255 35.3276609,54.2017021 C35.2455739,51.9855319 34.9480087,48.372766 34.5696391,45.3510638 C28.007813,46.1476596 20.9226826,44.8008511 18.0021826,39.1148936" id="Fill-5" fill="#54C0A9"></path>
            </g>
        </g>
    </g>
</svg>