<?xml version="1.0" encoding="UTF-8"?>
<svg width="158px" height="46px" viewBox="0 0 158 46" version="1.1" xmlns="http://www.w3.org/2000/svg" xmlns:xlink="http://www.w3.org/1999/xlink">
    <!-- Generator: Sketch 55.1 (78136) - https://sketchapp.com -->
    <title>New_LG_Logo</title>
    <desc>Created with Sketch.</desc>
    <defs>
        <path d="M6.61802642,8.60794274 C6.51127329,8.76839386 6.38228185,8.91992875 6.23104825,9.06255197 C6.07981464,9.20517518 5.90486074,9.32996862 5.7061813,9.43693603 C5.50750185,9.54390345 5.28806815,9.62858471 5.0478736,9.69098237 C4.80767905,9.75338002 4.54523842,9.78457838 4.26057317,9.78457838 C3.7861148,9.78457838 3.34724739,9.70138276 2.94395777,9.534989 C2.54066816,9.36859525 2.19372568,9.13832164 1.90311992,8.84416126 C1.61251417,8.55000088 1.38566716,8.20087637 1.2225721,7.79677726 C1.05947703,7.39267815 0.977930723,6.94995856 0.977930723,6.46860521 C0.977930723,5.98725186 1.06095969,5.54453227 1.22702012,5.14043316 C1.39308055,4.73633405 1.62289288,4.38720954 1.916464,4.09304916 C2.21003512,3.79888878 2.5569776,3.56861516 2.95730185,3.40222141 C3.3576261,3.23582766 3.79204553,3.15263203 4.26057317,3.15263203 C4.49187163,3.15263203 4.71871864,3.17640221 4.941121,3.22394329 C5.16352336,3.27148436 5.37257844,3.33833799 5.56829252,3.42450618 C5.7640066,3.51067437 5.94192582,3.61466891 6.10205552,3.7364929 C6.26218522,3.8583169 6.39562464,3.99648107 6.50237777,4.15098955 L5.96861477,4.54320143 C5.90337675,4.44217665 5.8158998,4.34115339 5.7061813,4.24012861 C5.5964628,4.13910384 5.46747136,4.04996566 5.31920312,3.97271142 C5.17093488,3.89545718 5.00932492,3.83306046 4.8343684,3.78551939 C4.65941187,3.73797832 4.47111403,3.71420814 4.26946922,3.71420814 C3.86024888,3.71420814 3.49403181,3.78848995 3.17080705,3.9370558 C2.84758228,4.08562164 2.57329015,4.28618253 2.34792242,4.53874448 C2.1225547,4.79130642 1.95056612,5.08397675 1.83195152,5.41676426 C1.71333693,5.74955176 1.65403052,6.1001619 1.65403052,6.46860521 C1.65403052,6.83704851 1.71481959,7.18765866 1.83639955,7.52044616 C1.95797951,7.85323366 2.13145075,8.145904 2.35681847,8.39846594 C2.5821862,8.65102788 2.85647833,8.85158877 3.1797031,9.00015462 C3.50292786,9.14872047 3.86617961,9.22300228 4.26946922,9.22300228 C4.63124373,9.22300228 4.97522089,9.14872047 5.30141102,9.00015462 C5.62760115,8.85158877 5.90041063,8.61388698 6.11984762,8.28704211 L6.61802642,8.60794274 Z M7.68555242,6.37055224 C7.68555242,6.25764219 7.6825871,6.11204984 7.67665637,5.93377083 C7.67072564,5.75549181 7.66182968,5.5950431 7.64996822,5.45241988 L8.22821147,5.45241988 C8.24007293,5.56532993 8.24896889,5.69012337 8.25489962,5.82680395 C8.26083035,5.96348453 8.26379567,6.07639288 8.26379567,6.16553239 L8.28158777,6.16553239 C8.40020237,5.9218844 8.57812159,5.72429478 8.81535077,5.57275762 C9.05257996,5.42122045 9.31945879,5.345453 9.61599527,5.345453 C9.69309476,5.345453 9.76277979,5.34842428 9.82505245,5.35436691 C9.88732511,5.36030954 9.9510795,5.37219463 10.0163175,5.39002254 L9.93625307,5.96051254 C9.9006687,5.94862728 9.84136229,5.93674219 9.75833207,5.92485692 C9.67530186,5.91297165 9.59227289,5.90702911 9.50924267,5.90702911 C9.34911297,5.90702911 9.19491631,5.93674183 9.04664807,5.99616817 C8.89837983,6.05559451 8.7693884,6.14918959 8.6596699,6.27695622 C8.5499514,6.40472285 8.46099179,6.56814283 8.3927884,6.76722107 C8.32458501,6.96629931 8.29048382,7.20548674 8.29048382,7.48479054 L8.29048382,9.62412807 L7.68555242,9.62412807 L7.68555242,6.37055224 Z" id="path-1"></path>
        <path d="M13.9038914,7.21737334 C13.8860992,6.8251595 13.7600731,6.49980517 13.5258092,6.2413006 C13.2915454,5.98279602 12.9579469,5.85354567 12.5250036,5.85354567 C12.3233588,5.85354567 12.1365436,5.89068657 11.9645525,5.9649695 C11.7925613,6.03925242 11.64133,6.14027568 11.5108539,6.26804231 C11.3803779,6.39580895 11.2765917,6.54140129 11.1994922,6.70482373 C11.1223927,6.86824616 11.0779129,7.03909433 11.0660514,7.21737334 L13.9038914,7.21737334 Z M14.5177188,7.41347929 L14.5177188,7.54718788 C14.5177188,7.59472895 14.5147535,7.64524058 14.5088228,7.69872429 L11.0571554,7.69872429 C11.0630861,7.90671648 11.1046006,8.10282046 11.1817001,8.28704211 C11.2587996,8.47126376 11.3655511,8.63171247 11.5019579,8.76839306 C11.6383647,8.90507364 11.798492,9.01352508 11.9823446,9.09375064 C12.1661972,9.1739762 12.3648737,9.21408837 12.5783799,9.21408837 C12.8927086,9.21408837 13.1640354,9.1412922 13.3923685,8.99569767 C13.6207016,8.85010314 13.7941728,8.68222624 13.9127874,8.49206196 L14.366486,8.84861821 C14.1173953,9.16357781 13.8431032,9.38939452 13.5436013,9.5260751 C13.2440995,9.66275568 12.9223622,9.73109494 12.5783799,9.73109494 C12.269982,9.73109494 11.9838286,9.67612641 11.7199111,9.56618768 C11.4559936,9.45624895 11.2291466,9.30322842 11.0393633,9.1071215 C10.8495799,8.91101458 10.6998312,8.67925533 10.5901127,8.4118368 C10.4803942,8.14441827 10.4255358,7.85323357 10.4255358,7.53827397 C10.4255358,7.22331437 10.4789116,6.93212968 10.5856647,6.66471115 C10.6924179,6.39729262 10.8406839,6.16553337 11.0304672,5.96942645 C11.2202506,5.77331953 11.4426496,5.620299 11.697671,5.51036027 C11.9526923,5.40042154 12.2284671,5.345453 12.5250036,5.345453 C12.8511938,5.345453 13.1388298,5.40042154 13.3879205,5.51036027 C13.6370111,5.620299 13.8445835,5.76886262 14.010644,5.95605559 C14.1767044,6.14324856 14.3027305,6.36163708 14.3887261,6.61122771 C14.4747217,6.86081834 14.5177188,7.12823285 14.5177188,7.41347929 Z" id="path-2"></path>
        <path d="M18.3830525,6.93212834 C18.3830525,6.56962767 18.2881623,6.29924188 18.0983789,6.12096286 C17.9085956,5.94268384 17.6328208,5.85354567 17.2710463,5.85354567 C17.0219557,5.85354567 16.7906607,5.89811475 16.5771544,5.98725426 C16.3636481,6.07639377 16.1827636,6.19524467 16.0344953,6.34381052 L15.6964454,5.94268473 C15.8684366,5.77034835 16.0952836,5.62772727 16.3769933,5.51481723 C16.6587029,5.40190718 16.9774749,5.345453 17.3333186,5.345453 C17.5586864,5.345453 17.7692241,5.37665136 17.9649382,5.43904902 C18.1606523,5.50144668 18.3326409,5.59504176 18.4809091,5.71983707 C18.6291773,5.84463239 18.7448248,6.00210982 18.827855,6.19227411 C18.9108853,6.3824384 18.9523997,6.60528383 18.9523997,6.86081709 L18.9523997,8.6881679 C18.9523997,8.84861902 18.9583304,9.01501027 18.9701918,9.18734666 C18.9820533,9.35968304 18.9998452,9.50527539 19.0235681,9.62412807 L18.4809091,9.62412807 C18.4631169,9.52310329 18.4482903,9.41316621 18.4364288,9.29431353 C18.4245674,9.17546085 18.4186367,9.05958123 18.4186367,8.94667118 L18.4008446,8.94667118 C18.2110613,9.22597498 17.9960756,9.42653587 17.755881,9.54835986 C17.5156865,9.67018386 17.2265677,9.73109494 16.8885161,9.73109494 C16.7283864,9.73109494 16.5638112,9.7088104 16.3947854,9.66424065 C16.2257596,9.61967089 16.0715629,9.54687472 15.9321908,9.44584994 C15.7928186,9.34482516 15.6771711,9.21408918 15.5852448,9.05363806 C15.4933185,8.89318694 15.447356,8.69708296 15.447356,8.46532024 C15.447356,8.144418 15.5289024,7.89037421 15.6919974,7.70318124 C15.8550925,7.51598827 16.0730435,7.37633847 16.3458571,7.28422764 C16.6186707,7.19211682 16.931512,7.13269137 17.2843904,7.10594951 C17.6372688,7.07920766 18.0034859,7.06583694 18.3830525,7.06583694 L18.3830525,6.93212834 Z M18.2051315,7.53827397 C17.9560409,7.53827397 17.7054713,7.54867343 17.4534153,7.56947265 C17.2013593,7.59027187 16.9730296,7.63186968 16.7684195,7.69426734 C16.5638093,7.75666499 16.3962687,7.8472888 16.2657926,7.96614148 C16.1353166,8.08499416 16.0700795,8.2424716 16.0700795,8.43857852 C16.0700795,8.58714437 16.0982501,8.71193781 16.154592,8.81296259 C16.210934,8.91398736 16.2865496,8.99569736 16.3814413,9.05809501 C16.476333,9.12049267 16.5816018,9.16506176 16.6972511,9.19180361 C16.8129003,9.21854546 16.9300305,9.23191619 17.048645,9.23191619 C17.2621513,9.23191619 17.4519318,9.19477528 17.6179922,9.12049236 C17.7840527,9.04620943 17.9234227,8.94518617 18.0361066,8.81741954 C18.1487905,8.68965291 18.2347848,8.54257493 18.294092,8.37618117 C18.3533993,8.20978742 18.3830525,8.03448235 18.3830525,7.8502607 L18.3830525,7.53827397 L18.2051315,7.53827397 Z M22.2973145,5.96051254 L21.1230359,5.96051254 L21.1230359,8.39400899 C21.1230359,8.54851747 21.1378625,8.67628218 21.1675162,8.77730696 C21.1971698,8.87833174 21.240167,8.95707046 21.2965089,9.01352548 C21.3528509,9.0699805 21.4195706,9.10860704 21.49667,9.12940626 C21.5737695,9.15020548 21.6567985,9.16060494 21.7457594,9.16060494 C21.8287897,9.16060494 21.9162666,9.14871985 22.0081929,9.12494931 C22.1001192,9.10117877 22.1875962,9.06849478 22.2706264,9.02689634 L22.2973145,9.55281682 C22.1905614,9.59441525 22.0793619,9.62561362 21.9637127,9.64641283 C21.8480634,9.66721205 21.7220373,9.67761151 21.5856305,9.67761151 C21.4729467,9.67761151 21.3543339,9.66275514 21.2297885,9.63304197 C21.1052432,9.6033288 20.9895957,9.54687463 20.8828426,9.46367775 C20.7760895,9.38048088 20.6886125,9.26757253 20.6204091,9.12494931 C20.5522057,8.9823261 20.5181045,8.79513593 20.5181045,8.56337321 L20.5181045,5.96051254 L19.6551877,5.96051254 L19.6551877,5.45241988 L20.5181045,5.45241988 L20.5181045,4.27578424 L21.1230359,4.27578424 L21.1230359,5.45241988 L22.2973145,5.45241988 L22.2973145,5.96051254 Z" id="path-3"></path>
        <path d="M26.4161857,7.21737334 C26.3983935,6.8251595 26.2723674,6.49980517 26.0381036,6.2413006 C25.8038398,5.98279602 25.4702412,5.85354567 25.0372979,5.85354567 C24.8356531,5.85354567 24.648838,5.89068657 24.4768468,5.9649695 C24.3048556,6.03925242 24.1536243,6.14027568 24.0231482,6.26804231 C23.8926722,6.39580895 23.788886,6.54140129 23.7117865,6.70482373 C23.634687,6.86824616 23.5902072,7.03909433 23.5783457,7.21737334 L26.4161857,7.21737334 Z M27.0300131,7.41347929 L27.0300131,7.54718788 C27.0300131,7.59472895 27.0270478,7.64524058 27.0211171,7.69872429 L23.5694497,7.69872429 C23.5753804,7.90671648 23.6168949,8.10282046 23.6939944,8.28704211 C23.7710939,8.47126376 23.8778454,8.63171247 24.0142522,8.76839306 C24.150659,8.90507364 24.3107863,9.01352508 24.4946389,9.09375064 C24.6784915,9.1739762 24.877168,9.21408837 25.0906742,9.21408837 C25.4050029,9.21408837 25.6763297,9.1412922 25.9046628,8.99569767 C26.1329959,8.85010314 26.3064672,8.68222624 26.4250817,8.49206196 L26.8787803,8.84861821 C26.6296897,9.16357781 26.3553975,9.38939452 26.0558957,9.5260751 C25.7563938,9.66275568 25.4346566,9.73109494 25.0906742,9.73109494 C24.7822763,9.73109494 24.4961229,9.67612641 24.2322054,9.56618768 C23.968288,9.45624895 23.7414409,9.30322842 23.5516576,9.1071215 C23.3618742,8.91101458 23.2121256,8.67925533 23.1024071,8.4118368 C22.9926886,8.14441827 22.9378301,7.85323357 22.9378301,7.53827397 C22.9378301,7.22331437 22.9912059,6.93212968 23.097959,6.66471115 C23.2047122,6.39729262 23.3529782,6.16553337 23.5427615,5.96942645 C23.7325449,5.77331953 23.9549439,5.620299 24.2099653,5.51036027 C24.4649867,5.40042154 24.7407615,5.345453 25.0372979,5.345453 C25.3634881,5.345453 25.6511242,5.40042154 25.9002148,5.51036027 C26.1493054,5.620299 26.3568779,5.76886262 26.5229383,5.95605559 C26.6889987,6.14324856 26.8150248,6.36163708 26.9010204,6.61122771 C26.987016,6.86081834 27.0300131,7.12823285 27.0300131,7.41347929 Z" id="path-4"></path>
        <path d="M29.1597275,9.19626056 C29.1597275,9.32105588 29.1152477,9.43247859 29.0262868,9.53053205 C28.9373258,9.62858551 28.8216784,9.67761151 28.6793408,9.67761151 C28.5370033,9.67761151 28.4213558,9.62858551 28.3323949,9.53053205 C28.2434339,9.43247859 28.1989541,9.32105588 28.1989541,9.19626056 C28.1989541,9.07146525 28.2434339,8.96004253 28.3323949,8.86198907 C28.4213558,8.76393561 28.5370033,8.71490962 28.6793408,8.71490962 C28.8216784,8.71490962 28.9373258,8.76393561 29.0262868,8.86198907 C29.1152477,8.96004253 29.1597275,9.07146525 29.1597275,9.19626056 Z" id="path-5"></path>
        <path d="M35.4848191,9.05363806 L38.856422,9.05363806 L38.856422,9.62412807 L34.8443035,9.62412807 L34.8443035,3.31308235 L38.7496694,3.31308235 L38.7496694,3.88357236 L35.4848191,3.88357236 L35.4848191,6.05856551 L38.5361642,6.05856551 L38.5361642,6.62014162 L35.4848191,6.62014162 L35.4848191,9.05363806 Z M40.6979044,9.62412807 L40.092973,9.62412807 L40.092973,2.88521484 L40.6979044,2.88521484 L40.6979044,9.62412807 Z" id="path-6"></path>
        <path d="M45.4928753,7.21737334 C45.4750831,6.8251595 45.349057,6.49980517 45.1147932,6.2413006 C44.8805294,5.98279602 44.5469309,5.85354567 44.1139876,5.85354567 C43.9123428,5.85354567 43.7255276,5.89068657 43.5535364,5.9649695 C43.3815453,6.03925242 43.2303139,6.14027568 43.0998379,6.26804231 C42.9693618,6.39580895 42.8655756,6.54140129 42.7884761,6.70482373 C42.7113767,6.86824616 42.6668968,7.03909433 42.6550354,7.21737334 L45.4928753,7.21737334 Z M46.1067028,7.41347929 L46.1067028,7.54718788 C46.1067028,7.59472895 46.1037375,7.64524058 46.0978067,7.69872429 L42.6461393,7.69872429 C42.6520701,7.90671648 42.6935846,8.10282046 42.770684,8.28704211 C42.8477835,8.47126376 42.9545351,8.63171247 43.0909418,8.76839306 C43.2273486,8.90507364 43.3874759,9.01352508 43.5713285,9.09375064 C43.7551812,9.1739762 43.9538576,9.21408837 44.1673639,9.21408837 C44.4816926,9.21408837 44.7530194,9.1412922 44.9813525,8.99569767 C45.2096856,8.85010314 45.3831568,8.68222624 45.5017714,8.49206196 L45.9554699,8.84861821 C45.7063793,9.16357781 45.4320872,9.38939452 45.1325853,9.5260751 C44.8330835,9.66275568 44.5113462,9.73109494 44.1673639,9.73109494 C43.8589659,9.73109494 43.5728125,9.67612641 43.3088951,9.56618768 C43.0449776,9.45624895 42.8181306,9.30322842 42.6283472,9.1071215 C42.4385639,8.91101458 42.2888152,8.67925533 42.1790967,8.4118368 C42.0693782,8.14441827 42.0145198,7.85323357 42.0145198,7.53827397 C42.0145198,7.22331437 42.0678956,6.93212968 42.1746487,6.66471115 C42.2814018,6.39729262 42.4296678,6.16553337 42.6194512,5.96942645 C42.8092345,5.77331953 43.0316336,5.620299 43.2866549,5.51036027 C43.5416763,5.40042154 43.8174511,5.345453 44.1139876,5.345453 C44.4401777,5.345453 44.7278138,5.40042154 44.9769044,5.51036027 C45.2259951,5.620299 45.4335675,5.76886262 45.5996279,5.95605559 C45.7656884,6.14324856 45.8917145,6.36163708 45.9777101,6.61122771 C46.0637056,6.86081834 46.1067028,7.12823285 46.1067028,7.41347929 Z" id="path-7"></path>
        <path d="M49.1091197,9.62412807 L48.4419159,9.62412807 L46.7427704,5.45241988 L47.4188702,5.45241988 L48.7710698,8.98232681 L48.7888619,8.98232681 L50.1499575,5.45241988 L50.7993692,5.45241988 L49.1091197,9.62412807 Z M54.3666852,6.93212834 C54.3666852,6.56962767 54.271795,6.29924188 54.0820116,6.12096286 C53.8922283,5.94268384 53.6164535,5.85354567 53.254679,5.85354567 C53.0055883,5.85354567 52.7742933,5.89811475 52.5607871,5.98725426 C52.3472808,6.07639377 52.1663963,6.19524467 52.018128,6.34381052 L51.6800781,5.94268473 C51.8520693,5.77034835 52.0789163,5.62772727 52.3606259,5.51481723 C52.6423356,5.40190718 52.9611075,5.345453 53.3169513,5.345453 C53.542319,5.345453 53.7528568,5.37665136 53.9485709,5.43904902 C54.1442849,5.50144668 54.3162735,5.59504176 54.4645418,5.71983707 C54.61281,5.84463239 54.7284575,6.00210982 54.8114877,6.19227411 C54.8945179,6.3824384 54.9360324,6.60528383 54.9360324,6.86081709 L54.9360324,8.6881679 C54.9360324,8.84861902 54.9419631,9.01501027 54.9538245,9.18734666 C54.965686,9.35968304 54.9834779,9.50527539 55.0072008,9.62412807 L54.4645418,9.62412807 C54.4467496,9.52310329 54.431923,9.41316621 54.4200615,9.29431353 C54.4082001,9.17546085 54.4022694,9.05958123 54.4022694,8.94667118 L54.3844773,8.94667118 C54.194694,9.22597498 53.9797082,9.42653587 53.7395137,9.54835986 C53.4993191,9.67018386 53.2102004,9.73109494 52.8721488,9.73109494 C52.7120191,9.73109494 52.5474438,9.7088104 52.378418,9.66424065 C52.2093922,9.61967089 52.0551956,9.54687472 51.9158234,9.44584994 C51.7764513,9.34482516 51.6608038,9.21408918 51.5688775,9.05363806 C51.4769512,8.89318694 51.4309887,8.69708296 51.4309887,8.46532024 C51.4309887,8.144418 51.512535,7.89037421 51.6756301,7.70318124 C51.8387252,7.51598827 52.0566762,7.37633847 52.3294898,7.28422764 C52.6023033,7.19211682 52.9151446,7.13269137 53.268023,7.10594951 C53.6209015,7.07920766 53.9871185,7.06583694 54.3666852,7.06583694 L54.3666852,6.93212834 Z M54.1887642,7.53827397 C53.9396736,7.53827397 53.689104,7.54867343 53.437048,7.56947265 C53.184992,7.59027187 52.9566623,7.63186968 52.7520521,7.69426734 C52.547442,7.75666499 52.3799014,7.8472888 52.2494253,7.96614148 C52.1189493,8.08499416 52.0537122,8.2424716 52.0537122,8.43857852 C52.0537122,8.58714437 52.0818828,8.71193781 52.1382247,8.81296259 C52.1945666,8.91398736 52.2701823,8.99569736 52.365074,9.05809501 C52.4599656,9.12049267 52.5652345,9.16506176 52.6808837,9.19180361 C52.796533,9.21854546 52.9136631,9.23191619 53.0322777,9.23191619 C53.245784,9.23191619 53.4355645,9.19477528 53.6016249,9.12049236 C53.7676853,9.04620943 53.9070554,8.94518617 54.0197393,8.81741954 C54.1324231,8.68965291 54.2184174,8.54257493 54.2777247,8.37618117 C54.337032,8.20978742 54.3666852,8.03448235 54.3666852,7.8502607 L54.3666852,7.53827397 L54.1887642,7.53827397 Z M58.2809472,5.96051254 L57.1066686,5.96051254 L57.1066686,8.39400899 C57.1066686,8.54851747 57.1214952,8.67628218 57.1511489,8.77730696 C57.1808025,8.87833174 57.2237997,8.95707046 57.2801416,9.01352548 C57.3364835,9.0699805 57.4032032,9.10860704 57.4803027,9.12940626 C57.5574022,9.15020548 57.6404312,9.16060494 57.7293921,9.16060494 C57.8124223,9.16060494 57.8998993,9.14871985 57.9918256,9.12494931 C58.0837519,9.10117877 58.1712288,9.06849478 58.2542591,9.02689634 L58.2809472,9.55281682 C58.1741941,9.59441525 58.0629946,9.62561362 57.9473453,9.64641283 C57.8316961,9.66721205 57.70567,9.67761151 57.5692632,9.67761151 C57.4565794,9.67761151 57.3379665,9.66275514 57.2134212,9.63304197 C57.0888759,9.6033288 56.9732284,9.54687463 56.8664753,9.46367775 C56.7597221,9.38048088 56.6722452,9.26757253 56.6040418,9.12494931 C56.5358384,8.9823261 56.5017372,8.79513593 56.5017372,8.56337321 L56.5017372,5.96051254 L55.6388204,5.96051254 L55.6388204,5.45241988 L56.5017372,5.45241988 L56.5017372,4.27578424 L57.1066686,4.27578424 L57.1066686,5.45241988 L58.2809472,5.45241988 L58.2809472,5.96051254 Z" id="path-8"></path>
        <path d="M62.3998184,7.21737334 C62.3820262,6.8251595 62.2560001,6.49980517 62.0217362,6.2413006 C61.7874724,5.98279602 61.4538739,5.85354567 61.0209306,5.85354567 C60.8192858,5.85354567 60.6324706,5.89068657 60.4604795,5.9649695 C60.2884883,6.03925242 60.137257,6.14027568 60.0067809,6.26804231 C59.8763049,6.39580895 59.7725186,6.54140129 59.6954192,6.70482373 C59.6183197,6.86824616 59.5738399,7.03909433 59.5619784,7.21737334 L62.3998184,7.21737334 Z M63.0136458,7.41347929 L63.0136458,7.54718788 C63.0136458,7.59472895 63.0106805,7.64524058 63.0047498,7.69872429 L59.5530824,7.69872429 C59.5590131,7.90671648 59.6005276,8.10282046 59.6776271,8.28704211 C59.7547265,8.47126376 59.8614781,8.63171247 59.9978849,8.76839306 C60.1342916,8.90507364 60.2944189,9.01352508 60.4782716,9.09375064 C60.6621242,9.1739762 60.8608006,9.21408837 61.0743069,9.21408837 C61.3886356,9.21408837 61.6599624,9.1412922 61.8882955,8.99569767 C62.1166286,8.85010314 62.2900998,8.68222624 62.4087144,8.49206196 L62.862413,8.84861821 C62.6133223,9.16357781 62.3390302,9.38939452 62.0395283,9.5260751 C61.7400265,9.66275568 61.4182892,9.73109494 61.0743069,9.73109494 C60.765909,9.73109494 60.4797556,9.67612641 60.2158381,9.56618768 C59.9519206,9.45624895 59.7250736,9.30322842 59.5352903,9.1071215 C59.3455069,8.91101458 59.1957582,8.67925533 59.0860397,8.4118368 C58.9763212,8.14441827 58.9214628,7.85323357 58.9214628,7.53827397 C58.9214628,7.22331437 58.9748386,6.93212968 59.0815917,6.66471115 C59.1883448,6.39729262 59.3366109,6.16553337 59.5263942,5.96942645 C59.7161776,5.77331953 59.9385766,5.620299 60.193598,5.51036027 C60.4486193,5.40042154 60.7243941,5.345453 61.0209306,5.345453 C61.3471207,5.345453 61.6347568,5.40042154 61.8838475,5.51036027 C62.1329381,5.620299 62.3405105,5.76886262 62.506571,5.95605559 C62.6726314,6.14324856 62.7986575,6.36163708 62.8846531,6.61122771 C62.9706487,6.86081834 63.0136458,7.12823285 63.0136458,7.41347929 Z" id="path-9"></path>
        <path d="M65.1442498,9.19626056 C65.1442498,9.32105588 65.09977,9.43247859 65.010809,9.53053205 C64.9218481,9.62858551 64.8062006,9.67761151 64.6638631,9.67761151 C64.5215256,9.67761151 64.4058781,9.62858551 64.3169171,9.53053205 C64.2279562,9.43247859 64.1834764,9.32105588 64.1834764,9.19626056 C64.1834764,9.07146525 64.2279562,8.96004253 64.3169171,8.86198907 C64.4058781,8.76393561 64.5215256,8.71490962 64.6638631,8.71490962 C64.8062006,8.71490962 64.9218481,8.76393561 65.010809,8.86198907 C65.09977,8.96004253 65.1442498,9.07146525 65.1442498,9.19626056 Z" id="path-10"></path>
        <path d="M71.4737894,9.05363806 L74.8453923,9.05363806 L74.8453923,9.62412807 L70.8332738,9.62412807 L70.8332738,3.31308235 L74.7386397,3.31308235 L74.7386397,3.88357236 L71.4737894,3.88357236 L71.4737894,6.05856551 L74.5251345,6.05856551 L74.5251345,6.62014162 L71.4737894,6.62014162 L71.4737894,9.05363806 Z M76.6068102,5.45241988 C76.6186717,5.56532993 76.6275676,5.69012337 76.6334984,5.82680395 C76.6394291,5.96348453 76.6423944,6.07639288 76.6423944,6.16553239 L76.6601865,6.16553239 C76.7788011,5.9218844 76.9715469,5.72429478 77.2384298,5.57275762 C77.5053126,5.42122045 77.787018,5.345453 78.0835545,5.345453 C78.6113895,5.345453 79.0072597,5.50293044 79.2711772,5.81789004 C79.5350947,6.13284964 79.6670514,6.54882778 79.6670514,7.06583694 L79.6670514,9.62412807 L79.06212,9.62412807 L79.06212,7.31542631 C79.06212,7.09554886 79.0443281,6.89647361 79.0087437,6.71819459 C78.9731593,6.53991557 78.9123703,6.38689504 78.8263747,6.25912841 C78.7403791,6.13136178 78.6247316,6.03182415 78.4794287,5.96051254 C78.3341259,5.88920094 78.1517587,5.85354567 77.9323217,5.85354567 C77.772192,5.85354567 77.6165126,5.88622966 77.465279,5.95159864 C77.3140454,6.01696761 77.1791234,6.11650524 77.0605088,6.2502145 C76.9418942,6.38392377 76.8470039,6.55328629 76.7758352,6.75830717 C76.7046664,6.96332804 76.6690826,7.20548674 76.6690826,7.48479054 L76.6690826,9.62412807 L76.0641512,9.62412807 L76.0641512,6.37055224 C76.0641512,6.25764219 76.0611858,6.11204984 76.0552551,5.93377083 C76.0493244,5.75549181 76.0404284,5.5950431 76.028567,5.45241988 L76.6068102,5.45241988 Z M81.4551575,10.4620353 C81.6212179,10.6759701 81.8480649,10.8572177 82.1357053,11.0057836 C82.4233457,11.1543494 82.727291,11.2286312 83.0475504,11.2286312 C83.3440869,11.2286312 83.5961391,11.1855478 83.8037147,11.0993796 C84.0112902,11.0132114 84.1788308,10.8958461 84.3063415,10.7472803 C84.4338522,10.5987144 84.5272598,10.424895 84.5865671,10.2258167 C84.6458744,10.0267385 84.6755276,9.81429253 84.6755276,9.58847244 L84.6755276,8.80404868 L84.6577355,8.80404868 C84.4975982,9.06552458 84.2707588,9.2675711 83.9771876,9.41019431 C83.6836165,9.55281753 83.3856018,9.62412807 83.0831346,9.62412807 C82.7569445,9.62412807 82.4618951,9.57064516 82.1979776,9.46367775 C81.9340602,9.35671034 81.7086958,9.20963236 81.5218778,9.02243939 C81.3350599,8.83524642 81.1897592,8.61091535 81.0859714,8.34943946 C80.9821836,8.08796356 80.9302905,7.80569268 80.9302905,7.50261835 C80.9302905,7.20548665 80.9821836,6.92618704 81.0859714,6.66471115 C81.1897592,6.40323525 81.3350599,6.17444728 81.5218778,5.97834036 C81.7086958,5.78223344 81.9340602,5.62772727 82.1979776,5.51481723 C82.4618951,5.40190718 82.7569445,5.345453 83.0831346,5.345453 C83.3856018,5.345453 83.6821339,5.41676354 83.9727396,5.55938676 C84.2633454,5.70200997 84.491675,5.90702777 84.6577355,6.1744463 L84.6755276,6.1744463 L84.6755276,5.45241988 L85.280459,5.45241988 L85.280459,9.58847244 C85.280459,9.81429253 85.2493231,10.0549656 85.1870504,10.3104989 C85.1247778,10.5660321 85.0091303,10.8007626 84.8401045,11.0146975 C84.6710787,11.2286323 84.4412664,11.4069086 84.1506606,11.5495318 C83.8600549,11.6921551 83.4834592,11.7634656 83.0208623,11.7634656 C82.6353648,11.7634656 82.2676651,11.6891838 81.9177521,11.5406179 C81.567839,11.3920521 81.2683417,11.1870343 81.019251,10.9255584 L81.4551575,10.4620353 Z M81.5708061,7.48479054 C81.5708061,7.70466799 81.60639,7.91265706 81.6775587,8.10876398 C81.7487275,8.3048709 81.851031,8.4772047 81.9844724,8.62577055 C82.1179139,8.7743364 82.2824891,8.89170166 82.4782032,8.97786986 C82.6739173,9.06403805 82.8963163,9.1071215 83.145407,9.1071215 C83.3767054,9.1071215 83.5902085,9.06849496 83.7859226,8.99124071 C83.9816366,8.91398647 84.1506599,8.80404939 84.2929974,8.66142618 C84.4353349,8.51880296 84.5465344,8.3479548 84.6265993,8.14887656 C84.7066641,7.94979832 84.746696,7.72843853 84.746696,7.48479054 C84.746696,7.26491308 84.7066641,7.05692401 84.6265993,6.86081709 C84.5465344,6.66471017 84.4353349,6.49237637 84.2929974,6.34381052 C84.1506599,6.19524467 83.9816366,6.07639377 83.7859226,5.98725426 C83.5902085,5.89811475 83.3767054,5.85354567 83.145407,5.85354567 C82.8963163,5.85354567 82.6739173,5.89811475 82.4782032,5.98725426 C82.2824891,6.07639377 82.1179139,6.19524467 81.9844724,6.34381052 C81.851031,6.49237637 81.7487275,6.66471017 81.6775587,6.86081709 C81.60639,7.05692401 81.5708061,7.26491308 81.5708061,7.48479054 Z M89.4793946,6.93212834 C89.4793946,6.56962767 89.3845043,6.29924188 89.194721,6.12096286 C89.0049376,5.94268384 88.7291628,5.85354567 88.3673883,5.85354567 C88.1182977,5.85354567 87.8870027,5.89811475 87.6734964,5.98725426 C87.4599901,6.07639377 87.2791056,6.19524467 87.1308374,6.34381052 L86.7927875,5.94268473 C86.9647786,5.77034835 87.1916256,5.62772727 87.4733353,5.51481723 C87.7550449,5.40190718 88.0738169,5.345453 88.4296607,5.345453 C88.6550284,5.345453 88.8655661,5.37665136 89.0612802,5.43904902 C89.2569943,5.50144668 89.4289829,5.59504176 89.5772511,5.71983707 C89.7255194,5.84463239 89.8411668,6.00210982 89.9241971,6.19227411 C90.0072273,6.3824384 90.0487418,6.60528383 90.0487418,6.86081709 L90.0487418,8.6881679 C90.0487418,8.84861902 90.0546724,9.01501027 90.0665339,9.18734666 C90.0783953,9.35968304 90.0961872,9.50527539 90.1199102,9.62412807 L89.5772511,9.62412807 C89.5594589,9.52310329 89.5446323,9.41316621 89.5327709,9.29431353 C89.5209094,9.17546085 89.5149788,9.05958123 89.5149788,8.94667118 L89.4971867,8.94667118 C89.3074033,9.22597498 89.0924176,9.42653587 88.852223,9.54835986 C88.6120285,9.67018386 88.3229098,9.73109494 87.9848582,9.73109494 C87.8247285,9.73109494 87.6601532,9.7088104 87.4911274,9.66424065 C87.3221016,9.61967089 87.1679049,9.54687472 87.0285328,9.44584994 C86.8891606,9.34482516 86.7735131,9.21408918 86.6815868,9.05363806 C86.5896605,8.89318694 86.5436981,8.69708296 86.5436981,8.46532024 C86.5436981,8.144418 86.6252444,7.89037421 86.7883394,7.70318124 C86.9514345,7.51598827 87.1693855,7.37633847 87.4421991,7.28422764 C87.7150127,7.19211682 88.027854,7.13269137 88.3807324,7.10594951 C88.7336108,7.07920766 89.0998279,7.06583694 89.4793946,7.06583694 L89.4793946,6.93212834 Z M89.3014736,7.53827397 C89.0523829,7.53827397 88.8018133,7.54867343 88.5497573,7.56947265 C88.2977013,7.59027187 88.0693717,7.63186968 87.8647615,7.69426734 C87.6601513,7.75666499 87.4926107,7.8472888 87.3621347,7.96614148 C87.2316586,8.08499416 87.1664216,8.2424716 87.1664216,8.43857852 C87.1664216,8.58714437 87.1945921,8.71193781 87.250934,8.81296259 C87.307276,8.91398736 87.3828916,8.99569736 87.4777833,9.05809501 C87.572675,9.12049267 87.6779439,9.16506176 87.7935931,9.19180361 C87.9092423,9.21854546 88.0263725,9.23191619 88.1449871,9.23191619 C88.3584933,9.23191619 88.5482738,9.19477528 88.7143343,9.12049236 C88.8803947,9.04620943 89.0197648,8.94518617 89.1324486,8.81741954 C89.2451325,8.68965291 89.3311268,8.54257493 89.3904341,8.37618117 C89.4497414,8.20978742 89.4793946,8.03448235 89.4793946,7.8502607 L89.4793946,7.53827397 L89.3014736,7.53827397 Z M91.8279518,10.4620353 C91.9940122,10.6759701 92.2208592,10.8572177 92.5084996,11.0057836 C92.79614,11.1543494 93.1000853,11.2286312 93.4203447,11.2286312 C93.7168812,11.2286312 93.9689334,11.1855478 94.176509,11.0993796 C94.3840845,11.0132114 94.5516251,10.8958461 94.6791358,10.7472803 C94.8066465,10.5987144 94.9000541,10.424895 94.9593614,10.2258167 C95.0186687,10.0267385 95.0483219,9.81429253 95.0483219,9.58847244 L95.0483219,8.80404868 L95.0305298,8.80404868 C94.8703925,9.06552458 94.6435531,9.2675711 94.3499819,9.41019431 C94.0564108,9.55281753 93.7583961,9.62412807 93.4559289,9.62412807 C93.1297388,9.62412807 92.8346894,9.57064516 92.5707719,9.46367775 C92.3068545,9.35671034 92.0814901,9.20963236 91.8946721,9.02243939 C91.7078542,8.83524642 91.5625535,8.61091535 91.4587657,8.34943946 C91.3549779,8.08796356 91.3030848,7.80569268 91.3030848,7.50261835 C91.3030848,7.20548665 91.3549779,6.92618704 91.4587657,6.66471115 C91.5625535,6.40323525 91.7078542,6.17444728 91.8946721,5.97834036 C92.0814901,5.78223344 92.3068545,5.62772727 92.5707719,5.51481723 C92.8346894,5.40190718 93.1297388,5.345453 93.4559289,5.345453 C93.7583961,5.345453 94.0549282,5.41676354 94.3455339,5.55938676 C94.6361397,5.70200997 94.8644693,5.90702777 95.0305298,6.1744463 L95.0483219,6.1744463 L95.0483219,5.45241988 L95.6532533,5.45241988 L95.6532533,9.58847244 C95.6532533,9.81429253 95.6221174,10.0549656 95.5598447,10.3104989 C95.4975721,10.5660321 95.3819246,10.8007626 95.2128988,11.0146975 C95.043873,11.2286323 94.8140607,11.4069086 94.5234549,11.5495318 C94.2328492,11.6921551 93.8562535,11.7634656 93.3936566,11.7634656 C93.0081591,11.7634656 92.6404594,11.6891838 92.2905464,11.5406179 C91.9406333,11.3920521 91.641136,11.1870343 91.3920453,10.9255584 L91.8279518,10.4620353 Z M91.9436004,7.48479054 C91.9436004,7.70466799 91.9791843,7.91265706 92.050353,8.10876398 C92.1215218,8.3048709 92.2238253,8.4772047 92.3572667,8.62577055 C92.4907082,8.7743364 92.6552834,8.89170166 92.8509975,8.97786986 C93.0467116,9.06403805 93.2691106,9.1071215 93.5182013,9.1071215 C93.7494997,9.1071215 93.9630028,9.06849496 94.1587169,8.99124071 C94.3544309,8.91398647 94.5234542,8.80404939 94.6657917,8.66142618 C94.8081292,8.51880296 94.9193287,8.3479548 94.9993936,8.14887656 C95.0794584,7.94979832 95.1194903,7.72843853 95.1194903,7.48479054 C95.1194903,7.26491308 95.0794584,7.05692401 94.9993936,6.86081709 C94.9193287,6.66471017 94.8081292,6.49237637 94.6657917,6.34381052 C94.5234542,6.19524467 94.3544309,6.07639377 94.1587169,5.98725426 C93.9630028,5.89811475 93.7494997,5.85354567 93.5182013,5.85354567 C93.2691106,5.85354567 93.0467116,5.89811475 92.8509975,5.98725426 C92.6552834,6.07639377 92.4907082,6.19524467 92.3572667,6.34381052 C92.2238253,6.49237637 92.1215218,6.66471017 92.050353,6.86081709 C91.9791843,7.05692401 91.9436004,7.26491308 91.9436004,7.48479054 Z" id="path-11"></path>
        <path d="M100.403744,7.21737334 C100.385952,6.8251595 100.259926,6.49980517 100.025662,6.2413006 C99.791398,5.98279602 99.4577995,5.85354567 99.0248562,5.85354567 C98.8232114,5.85354567 98.6363962,5.89068657 98.4644051,5.9649695 C98.2924139,6.03925242 98.1411826,6.14027568 98.0107065,6.26804231 C97.8802305,6.39580895 97.7764442,6.54140129 97.6993448,6.70482373 C97.6222453,6.86824616 97.5777655,7.03909433 97.565904,7.21737334 L100.403744,7.21737334 Z M101.017571,7.41347929 L101.017571,7.54718788 C101.017571,7.59472895 101.014606,7.64524058 101.008675,7.69872429 L97.557008,7.69872429 C97.5629387,7.90671648 97.6044532,8.10282046 97.6815527,8.28704211 C97.7586521,8.47126376 97.8654037,8.63171247 98.0018105,8.76839306 C98.1382172,8.90507364 98.2983445,9.01352508 98.4821972,9.09375064 C98.6660498,9.1739762 98.8647262,9.21408837 99.0782325,9.21408837 C99.3925612,9.21408837 99.663888,9.1412922 99.8922211,8.99569767 C100.120554,8.85010314 100.294025,8.68222624 100.41264,8.49206196 L100.866339,8.84861821 C100.617248,9.16357781 100.342956,9.38939452 100.043454,9.5260751 C99.7439521,9.66275568 99.4222148,9.73109494 99.0782325,9.73109494 C98.7698346,9.73109494 98.4836812,9.67612641 98.2197637,9.56618768 C97.9558462,9.45624895 97.7289992,9.30322842 97.5392159,9.1071215 C97.3494325,8.91101458 97.1996838,8.67925533 97.0899653,8.4118368 C96.9802468,8.14441827 96.9253884,7.85323357 96.9253884,7.53827397 C96.9253884,7.22331437 96.9787642,6.93212968 97.0855173,6.66471115 C97.1922704,6.39729262 97.3405365,6.16553337 97.5303198,5.96942645 C97.7201032,5.77331953 97.9425022,5.620299 98.1975236,5.51036027 C98.4525449,5.40042154 98.7283197,5.345453 99.0248562,5.345453 C99.3510463,5.345453 99.6386824,5.40042154 99.8877731,5.51036027 C100.136864,5.620299 100.344436,5.76886262 100.510497,5.95605559 C100.676557,6.14324856 100.802583,6.36163708 100.888579,6.61122771 C100.974574,6.86081834 101.017571,7.12823285 101.017571,7.41347929 Z" id="path-12"></path>
        <path d="M103.148175,9.19626056 C103.148175,9.32105588 103.103696,9.43247859 103.014735,9.53053205 C102.925774,9.62858551 102.810126,9.67761151 102.667789,9.67761151 C102.525451,9.67761151 102.409804,9.62858551 102.320843,9.53053205 C102.231882,9.43247859 102.187402,9.32105588 102.187402,9.19626056 C102.187402,9.07146525 102.231882,8.96004253 102.320843,8.86198907 C102.409804,8.76393561 102.525451,8.71490962 102.667789,8.71490962 C102.810126,8.71490962 102.925774,8.76393561 103.014735,8.86198907 C103.103696,8.96004253 103.148175,9.07146525 103.148175,9.19626056 Z" id="path-13"></path>
    </defs>
    <g id="Page-1" stroke="none" stroke-width="1" fill="none" fill-rule="evenodd">
        <g id="New_LG_Logo" transform="translate(0.000000, -1.000000)" fill-rule="nonzero">
            <g id="Text" transform="translate(54.019231, 11.234043)">
                <path d="M10.9163692,3.14257021 L10.9163692,12.6792511 L12.2423885,12.6792511 L12.2423885,0.905974468 L10.8990423,0.905974468 L6.61929231,7.33184681 L2.33750385,0.905974468 L0.995176923,0.905974468 L0.995176923,12.6792511 L2.28858077,12.6792511 L2.28858077,3.15993191 L6.56833077,9.44997447 L6.63661923,9.44997447 L10.9163692,3.14257021 Z M21.1555615,0.822229787 L19.9141385,0.822229787 L14.5601192,12.6792511 L15.9177346,12.6792511 L17.3120423,9.56844255 L23.7077154,9.56844255 L25.0836769,12.6792511 L26.5116192,12.6792511 L21.1555615,0.822229787 Z M23.1868885,8.37354894 L17.83185,8.37354894 L20.5175231,2.36946383 L23.1868885,8.37354894 Z M38.5456769,12.6792511 L34.9386192,7.86801702 C35.3952346,7.7904 35.8222923,7.65559149 36.2126577,7.46563404 C36.6050615,7.27465532 36.9434462,7.03669787 37.2288308,6.75074043 C37.5142154,6.46478298 37.7364077,6.12878298 37.89235,5.74069787 C38.0493115,5.35363404 38.1267731,4.91346383 38.1267731,4.42120851 C38.1267731,3.89422979 38.0258692,3.41525106 37.8240615,2.98325106 C37.6242923,2.55022979 37.3378885,2.18154894 36.9689269,1.87210213 C36.5989462,1.56571915 36.1545615,1.32571915 35.6337346,1.15822979 C35.1149462,0.989719149 34.5288885,0.905974468 33.8796385,0.905974468 L28.8262923,0.905974468 L28.8262923,12.6792511 L30.1533308,12.6792511 L30.1533308,8.10495319 L33.5096577,8.10495319 L36.9189846,12.6792511 L38.5456769,12.6792511 Z M36.7834269,4.47125106 C36.7834269,4.85218723 36.7080038,5.19431489 36.5571577,5.49763404 C36.4052923,5.79993191 36.1953308,6.05627234 35.9293115,6.26257021 C35.6602346,6.46988936 35.3401962,6.63022979 34.9702154,6.74154894 C34.6012538,6.85491064 34.1986577,6.91005957 33.7614077,6.91005957 L30.1533308,6.91005957 L30.1533308,2.13354894 L33.7787346,2.13354894 C34.7306962,2.13354894 35.4686192,2.33780426 35.9955615,2.74631489 C36.5214846,3.15686809 36.7834269,3.73082553 36.7834269,4.47125106 Z M45.7149462,6.05320851 L50.7509654,0.905974468 L49.0386577,0.905974468 L42.2903308,7.93644255 L42.2903308,0.905974468 L40.9632923,0.905974468 L40.9632923,12.6792511 L42.2903308,12.6792511 L42.2903308,9.51737872 L44.7915231,6.97848511 L49.3077346,12.6792511 L50.9680615,12.6792511 L45.7149462,6.05320851 Z M61.5272923,0.905974468 L53.0330231,0.905974468 L53.0330231,12.6792511 L61.6118885,12.6792511 L61.6118885,11.4690383 L54.3600615,11.4690383 L54.3600615,7.34716596 L60.7720423,7.34716596 L60.7720423,6.13695319 L54.3600615,6.13695319 L54.3600615,2.11618723 L61.5272923,2.11618723 L61.5272923,0.905974468 Z M68.7291769,2.13354894 L72.6736,2.13354894 L72.6736,0.905974468 L63.4414077,0.905974468 L63.4414077,2.13354894 L67.3858308,2.13354894 L67.3858308,12.6792511 L68.7291769,12.6792511 L68.7291769,2.13354894 Z M75.2756962,12.6792511 L76.6017154,12.6792511 L76.6017154,0.905974468 L75.2756962,0.905974468 L75.2756962,12.6792511 Z M88.6877538,10.3415489 L81.2850808,0.905974468 L80.0426385,0.905974468 L80.0426385,12.6792511 L81.3360423,12.6792511 L81.3360423,3.02410213 L88.9231962,12.6792511 L89.9801385,12.6792511 L89.9801385,0.905974468 L88.6877538,0.905974468 L88.6877538,10.3415489 Z M103.475773,11.0819745 L103.475773,6.38920851 L98.6242346,6.38920851 L98.6242346,7.58410213 L102.199696,7.58410213 L102.199696,10.5090383 C101.798119,10.8358468 101.298696,11.113634 100.706523,11.3424 C100.112312,11.571166 99.4814077,11.6875915 98.8097346,11.6875915 C98.0942346,11.6875915 97.4500808,11.5650383 96.8782923,11.3168681 C96.3085423,11.0707404 95.82135,10.7286128 95.4197731,10.2904851 C95.0151385,9.85337872 94.7052923,9.33457021 94.4871769,8.73610213 C94.2700808,8.13661277 94.1600038,7.48299574 94.1600038,6.77525106 C94.1600038,6.11448511 94.2731385,5.48946383 94.4953308,4.90120851 C94.7195615,4.31193191 95.0273692,3.79925106 95.4197731,3.36214468 C95.8101385,2.92299574 96.2800038,2.5757617 96.8293692,2.3184 C97.3777154,2.06001702 97.9760038,1.93031489 98.6242346,1.93031489 C99.0380423,1.93031489 99.4171962,1.9650383 99.7596577,2.03244255 C100.099062,2.09984681 100.411965,2.19278298 100.69735,2.31022979 C100.983754,2.4276766 101.248754,2.56759149 101.495408,2.73099574 C101.741042,2.89337872 101.976485,3.07618723 102.199696,3.27635745 L103.056869,2.26835745 C102.766388,2.02018723 102.465715,1.80061277 102.158927,1.60350638 C101.8501,1.40742128 101.520888,1.24197447 101.168235,1.10614468 C100.8166,0.972357447 100.435408,0.871251064 100.027715,0.804868085 C99.6179846,0.738485106 99.1674846,0.703761702 98.6741769,0.703761702 C97.7905038,0.703761702 96.9883692,0.868187234 96.2667538,1.2011234 C95.5441192,1.53099574 94.9254462,1.97627234 94.4117538,2.53797447 C93.8980615,3.09865532 93.4964846,3.74818723 93.2131385,4.48759149 C92.9267346,5.22801702 92.7830231,6.00214468 92.7830231,6.80895319 C92.7830231,7.65048511 92.9216385,8.44095319 93.1958115,9.18137872 C93.4699846,9.92180426 93.8654462,10.5652085 94.3862731,11.1166979 C94.9081192,11.6641021 95.5339269,12.0961021 96.2667538,12.4106553 C96.9985615,12.723166 97.8302538,12.8814638 98.7597923,12.8814638 C99.7566,12.8814638 100.653523,12.704783 101.454638,12.3524426 C102.254735,11.9990809 102.927427,11.5742298 103.475773,11.0819745 Z" id="Fill-1" fill="#54C0A9"></path>
                <g id="Create.--Elevate.--Engage." transform="translate(0.000000, 13.276596)">
                    <g id="Cr">
                        <use fill="#000000" xlink:href="#path-1"></use>
                        <use fill="#FFFFFF" xlink:href="#path-1"></use>
                    </g>
                    <g id="e">
                        <use fill="#000000" xlink:href="#path-2"></use>
                        <use fill="#FFFFFF" xlink:href="#path-2"></use>
                    </g>
                    <g id="at">
                        <use fill="#000000" xlink:href="#path-3"></use>
                        <use fill="#FFFFFF" xlink:href="#path-3"></use>
                    </g>
                    <g id="e">
                        <use fill="#000000" xlink:href="#path-4"></use>
                        <use fill="#FFFFFF" xlink:href="#path-4"></use>
                    </g>
                    <g id=".">
                        <use fill="#000000" xlink:href="#path-5"></use>
                        <use fill="#FFFFFF" xlink:href="#path-5"></use>
                    </g>
                    <g id="El">
                        <use fill="#000000" xlink:href="#path-6"></use>
                        <use fill="#FFFFFF" xlink:href="#path-6"></use>
                    </g>
                    <g id="e">
                        <use fill="#000000" xlink:href="#path-7"></use>
                        <use fill="#FFFFFF" xlink:href="#path-7"></use>
                    </g>
                    <g id="vat">
                        <use fill="#000000" xlink:href="#path-8"></use>
                        <use fill="#FFFFFF" xlink:href="#path-8"></use>
                    </g>
                    <g id="e">
                        <use fill="#000000" xlink:href="#path-9"></use>
                        <use fill="#FFFFFF" xlink:href="#path-9"></use>
                    </g>
                    <g id=".">
                        <use fill="#000000" xlink:href="#path-10"></use>
                        <use fill="#FFFFFF" xlink:href="#path-10"></use>
                    </g>
                    <g id="Engag">
                        <use fill="#000000" xlink:href="#path-11"></use>
                        <use fill="#FFFFFF" xlink:href="#path-11"></use>
                    </g>
                    <g id="e">
                        <use fill="#000000" xlink:href="#path-12"></use>
                        <use fill="#FFFFFF" xlink:href="#path-12"></use>
                    </g>
                    <g id=".">
                        <use fill="#000000" xlink:href="#path-13"></use>
                        <use fill="#FFFFFF" xlink:href="#path-13"></use>
                    </g>
                </g>
            </g>
            <ellipse id="Oval" cx="23.4321154" cy="24.0919149" rx="22.7186538" ry="22.7642553"></ellipse>
            <g id="Circle" transform="translate(0.000000, 0.510638)">
                <path d="M23.4980596,24.7884255 C25.4040212,23.3954043 27.5912904,22.5865532 30.0578288,22.3618723 C32.0545019,22.1821277 33.4661365,22.7438298 34.2968096,24.0469787 C34.5883096,24.900766 34.3865019,25.4277447 33.6903673,25.6309787 C33.1073673,25.7208511 32.726175,25.3725957 32.5467904,24.5862128 C32.4795212,24.3165957 32.368425,24.1593191 32.2104442,24.114383 C31.4929058,23.844766 30.7529442,23.7099574 29.9905596,23.7099574 C27.7248096,23.7099574 25.7515788,24.6648511 24.0708673,26.5746383 C23.0608096,27.7215319 22.5562904,28.9450213 22.5562904,30.2491915 C22.5562904,30.5862128 22.6011365,30.9222128 22.6908288,31.259234 C22.8029442,31.7994894 23.0720212,32.2876596 23.4980596,32.7257872 C23.9240981,33.1639149 24.3847904,33.4396596 24.8770788,33.552 C25.1685788,33.6194043 25.4498865,33.6531064 25.7179442,33.6531064 C26.4365019,33.6531064 26.9522327,33.4171915 27.2651365,32.9453617 C27.1316173,31.0580426 27.7248096,29.7773617 29.0487904,29.1033191 C29.4075596,28.9225532 29.7214827,28.8326809 29.9905596,28.8326809 C30.2147904,28.8326809 30.4278096,28.8888511 30.6296173,29.0011915 C30.8762712,29.405617 30.9995981,29.844766 30.9995981,30.3165957 C30.9995981,30.8772766 30.7193096,31.698383 30.1587327,32.7768511 C29.9946365,33.0117447 29.8825212,33.3947234 29.8213673,33.972766 C29.0773288,34.1402553 28.3281942,34.2699574 27.5912904,34.3608511 C25.4131942,34.6284255 22.8325019,34.596766 20.7135212,33.7021277 C20.0805788,33.0107234 19.7635981,32.1742979 19.7635981,31.1928511 C19.7635981,30.989617 19.7860212,30.7771915 19.8308673,30.5525106 C20.1447904,28.2597447 21.3678673,26.3387234 23.4980596,24.7884255 M29.5869442,30.384 C28.9509442,30.2706383 28.9855981,31.344 29.0681558,32.0200851 C29.3820788,31.5482553 29.7704058,30.8374468 29.6878481,30.5862128 C29.6531942,30.4789787 29.6562519,30.3962553 29.5869442,30.384 M46.1392519,23.5782128 C46.1392519,12.0173617 37.5298096,2.46638298 26.3855404,1.01412766 C26.9532519,1.81991489 27.187675,3.04748936 27.0888096,4.69787234 C26.8421558,8.45004255 25.6751365,12.6403404 23.5897904,17.2708085 C21.6165596,21.6745532 19.1500212,25.4839149 16.1891558,28.6968511 C17.6558288,36.8966809 28.2833481,35.6885106 34.0664635,33.1618723 C34.316175,33.0525957 34.4700788,33.3079149 34.4700788,33.7348085 C34.4700788,34.0718298 34.3110788,34.2117447 34.0664635,34.3414468 C32.8596942,34.9828085 31.3665212,35.5169362 29.7408481,35.8866383 C29.837675,37.8944681 30.1322327,41.2626383 30.5368673,45.197617 C39.5978288,42.2073191 46.1392519,33.6571915 46.1392519,23.5782128" id="Fill-3" fill="#7F7F7F"></path>
                <path d="M19.1499192,22.1913191 C22.7386308,15.7889362 24.5997462,9.34876596 24.7342846,3.68680851 C24.6659962,3.21395745 24.6731308,2.70740426 24.4988423,2.23659574 C24.2419962,1.54519149 24.1839,1.3613617 23.8251308,1.0907234 C23.3766692,0.978382979 23.0739577,0.955914894 22.9169962,1.02331915 C20.6298423,2.86570213 18.9144769,5.70893617 17.7698808,9.552 C16.08815,13.9108085 15.2880538,19.236766 15.2809192,25.5278298 C15.2809192,25.9077447 15.7630154,26.3908085 15.9872462,26.2355745 C16.5845154,25.8250213 17.5792846,24.3931915 19.1499192,22.1913191 M14.3055154,31.2919149 C12.7440538,27.8318298 12.6237846,25.3940426 12.6237846,23.5057021 C12.6237846,23.5057021 12.5850538,21.7971064 12.6197077,21.1005957 C12.6462077,20.5756596 12.6492654,20.1242553 12.6890154,19.9414468 L12.7583231,19.0907234 C13.7581885,10.7979574 16.4448808,4.75812766 20.8255346,0.970212766 C9.51003462,2.26519149 0.719169231,11.8948085 0.719169231,23.5782128 C0.719169231,36.1450213 10.8890538,46.3353191 23.42865,46.3353191 C25.0033615,46.3353191 26.5403615,46.1749787 28.0243615,45.8685957 C27.4862077,45.2149787 26.8746692,44.3795745 26.1897462,43.3613617 C24.9106115,41.4505532 23.7670346,40.2260426 22.7579962,39.6868085 C22.3992269,39.3947234 21.8834962,38.9341277 21.2108038,38.304 C20.67265,37.787234 20.4035731,37.236766 20.4035731,36.6525957 C20.4035731,36.5933617 20.4056115,36.5320851 20.4107077,36.4708085 C20.9774,36.6148085 21.5553038,36.7240851 22.1342269,36.8057872 C22.1851885,36.8905532 22.2585731,36.9855319 22.3543808,37.0907234 C23.2513038,37.7208511 24.2613615,38.6859574 25.3814962,39.9901277 C25.4946308,40.1249362 26.3915538,41.2483404 28.0732846,43.3613617 C28.0080538,41.5884255 27.7715923,38.6982128 27.4709192,36.2808511 C22.2565346,36.9181277 16.6263038,35.8406809 14.3055154,31.2919149" id="Fill-5" fill="#54C0A9"></path>
            </g>
        </g>
    </g>
</svg>