<?xml version="1.0" encoding="UTF-8"?>
<svg width="231px" height="82px" viewBox="0 0 231 82" version="1.1" xmlns="http://www.w3.org/2000/svg" xmlns:xlink="http://www.w3.org/1999/xlink">
    <!-- Generator: Sketch 51.1 (57501) - http://www.bohemiancoding.com/sketch -->
    <title>LG Marketing Logo (1)</title>
    <desc>Created with Sketch.</desc>
    <defs></defs>
    <g id="LG-Marketing-Logo-(1)" stroke="none" stroke-width="1" fill="none" fill-rule="evenodd">
        <g id="Text" transform="translate(85.000000, 28.000000)">
            <path d="M10.7104,3.0771 L10.7104,12.4151 L12.0114,12.4151 L12.0114,0.8871 L10.6934,0.8871 L6.4944,7.1791 L2.2934,0.8871 L0.9764,0.8871 L0.9764,12.4151 L2.2454,12.4151 L2.2454,3.0941 L6.4444,9.2531 L6.5114,9.2531 L10.7104,3.0771 Z M20.7564,0.8051 L19.5384,0.8051 L14.2854,12.4151 L15.6174,12.4151 L16.9854,9.3691 L23.2604,9.3691 L24.6104,12.4151 L26.0114,12.4151 L20.7564,0.8051 Z M22.7494,8.1991 L17.4954,8.1991 L20.1304,2.3201 L22.7494,8.1991 Z M37.8184,12.4151 L34.2794,7.7041 C34.7274,7.6281 35.1464,7.4961 35.5294,7.3101 C35.9144,7.1231 36.2464,6.8901 36.5264,6.6101 C36.8064,6.3301 37.0244,6.0011 37.1774,5.6211 C37.3314,5.2421 37.4074,4.8111 37.4074,4.3291 C37.4074,3.8131 37.3084,3.3441 37.1104,2.9211 C36.9144,2.4971 36.6334,2.1361 36.2714,1.8331 C35.9084,1.5331 35.4724,1.2981 34.9614,1.1341 C34.4524,0.9691 33.8774,0.8871 33.2404,0.8871 L28.2824,0.8871 L28.2824,12.4151 L29.5844,12.4151 L29.5844,7.9361 L32.8774,7.9361 L36.2224,12.4151 L37.8184,12.4151 Z M36.0894,4.3781 C36.0894,4.7511 36.0154,5.0861 35.8674,5.3831 C35.7184,5.6791 35.5124,5.9301 35.2514,6.1321 C34.9874,6.3351 34.6734,6.4921 34.3104,6.6011 C33.9484,6.7121 33.5534,6.7661 33.1244,6.7661 L29.5844,6.7661 L29.5844,2.0891 L33.1414,2.0891 C34.0754,2.0891 34.7994,2.2891 35.3164,2.6891 C35.8324,3.0911 36.0894,3.6531 36.0894,4.3781 Z M44.8524,5.9271 L49.7934,0.8871 L48.1134,0.8871 L41.4924,7.7711 L41.4924,0.8871 L40.1904,0.8871 L40.1904,12.4151 L41.4924,12.4151 L41.4924,9.3191 L43.9464,6.8331 L48.3774,12.4151 L50.0064,12.4151 L44.8524,5.9271 Z M60.3664,0.8871 L52.0324,0.8871 L52.0324,12.4151 L60.4494,12.4151 L60.4494,11.2301 L53.3344,11.2301 L53.3344,7.1941 L59.6254,7.1941 L59.6254,6.0091 L53.3344,6.0091 L53.3344,2.0721 L60.3664,2.0721 L60.3664,0.8871 Z M67.4324,2.0891 L71.3024,2.0891 L71.3024,0.8871 L62.2444,0.8871 L62.2444,2.0891 L66.1144,2.0891 L66.1144,12.4151 L67.4324,12.4151 L67.4324,2.0891 Z M73.8554,12.4151 L75.1564,12.4151 L75.1564,0.8871 L73.8554,0.8871 L73.8554,12.4151 Z M87.0144,10.1261 L79.7514,0.8871 L78.5324,0.8871 L78.5324,12.4151 L79.8014,12.4151 L79.8014,2.9611 L87.2454,12.4151 L88.2824,12.4151 L88.2824,0.8871 L87.0144,0.8871 L87.0144,10.1261 Z M101.5234,10.8511 L101.5234,6.2561 L96.7634,6.2561 L96.7634,7.4261 L100.2714,7.4261 L100.2714,10.2901 C99.8774,10.6101 99.3874,10.8821 98.8064,11.1061 C98.2234,11.3301 97.6044,11.4441 96.9454,11.4441 C96.2434,11.4441 95.6114,11.3241 95.0504,11.0811 C94.4914,10.8401 94.0134,10.5051 93.6194,10.0761 C93.2224,9.6481 92.9184,9.1401 92.7044,8.5541 C92.4914,7.9671 92.3834,7.3271 92.3834,6.6341 C92.3834,5.9871 92.4944,5.3751 92.7124,4.7991 C92.9324,4.2221 93.2344,3.7201 93.6194,3.2921 C94.0024,2.8621 94.4634,2.5221 95.0024,2.2701 C95.5404,2.0171 96.1274,1.8901 96.7634,1.8901 C97.1694,1.8901 97.5414,1.9241 97.8774,1.9901 C98.2104,2.0561 98.5174,2.1471 98.7974,2.2621 C99.0784,2.3771 99.3384,2.5141 99.5804,2.6741 C99.8214,2.8331 100.0524,3.0121 100.2714,3.2081 L101.1124,2.2211 C100.8274,1.9781 100.5324,1.7631 100.2314,1.5701 C99.9284,1.3781 99.6054,1.2161 99.2594,1.0831 C98.9144,0.9521 98.5404,0.8531 98.1404,0.7881 C97.7384,0.7231 97.2964,0.6891 96.8124,0.6891 C95.9454,0.6891 95.1584,0.8501 94.4504,1.1761 C93.7414,1.4991 93.1344,1.9351 92.6304,2.4851 C92.1264,3.0341 91.7324,3.6701 91.4544,4.3941 C91.1734,5.1191 91.0324,5.8771 91.0324,6.6671 C91.0324,7.4911 91.1684,8.2651 91.4374,8.9901 C91.7064,9.7151 92.0944,10.3451 92.6054,10.8851 C93.1174,11.4211 93.7314,11.8441 94.4504,12.1521 C95.1684,12.4581 95.9844,12.6131 96.8964,12.6131 C97.8744,12.6131 98.7544,12.4401 99.5404,12.0951 C100.3254,11.7491 100.9854,11.3331 101.5234,10.8511 Z" id="Fill-1" fill="#54C0A9"></path>
            <text id="Create.--Elevate.--Engage." font-family="ShreeDev0714, Shree Devanagari 714" font-size="8.7282" font-weight="normal" fill="#7F7F7F">
                <tspan x="0.4707" y="22.4236254">Cr</tspan>
                <tspan x="9.27479739" y="22.4236254" letter-spacing="-0.0043641">e</tspan>
                <tspan x="14.1278663" y="22.4236254">at</tspan>
                <tspan x="20.8285217" y="22.4236254" letter-spacing="-0.00523692">e</tspan>
                <tspan x="25.6807179" y="22.4236254">.</tspan>
                <tspan x="27.69742" y="22.4236254" letter-spacing="-0.0043641">  </tspan>
                <tspan x="34.6278818" y="22.4236254">El</tspan>
                <tspan x="41.4586471" y="22.4236254" letter-spacing="-0.0043641">e</tspan>
                <tspan x="46.311716" y="22.4236254">vat</tspan>
                <tspan x="57.165043" y="22.4236254" letter-spacing="-0.0043641">e</tspan>
                <tspan x="62.0181119" y="22.4236254">. </tspan>
                <tspan x="67.504409" y="22.4236254" letter-spacing="-0.0043641"> </tspan>
                <tspan x="70.96964" y="22.4236254">Engag</tspan>
                <tspan x="95.7013471" y="22.4236254" letter-spacing="-0.0043641">e</tspan>
                <tspan x="100.554416" y="22.4236254">.</tspan>
            </text>
        </g>
        <g id="Group-7" transform="translate(32.000000, 17.500000)">
            <path d="M23.0547,24.272 C24.9247,22.908 27.0707,22.116 29.4907,21.896 C31.4497,21.72 32.8347,22.27 33.6497,23.546 C33.9357,24.382 33.7377,24.898 33.0547,25.097 C32.4827,25.185 32.1087,24.844 31.9327,24.074 C31.8667,23.81 31.7577,23.656 31.6027,23.612 C30.8987,23.348 30.1727,23.216 29.4247,23.216 C27.2017,23.216 25.2657,24.151 23.6167,26.021 C22.6257,27.144 22.1307,28.342 22.1307,29.619 C22.1307,29.949 22.1747,30.278 22.2627,30.608 C22.3727,31.137 22.6367,31.615 23.0547,32.044 C23.4727,32.473 23.9247,32.743 24.4077,32.853 C24.6937,32.919 24.9697,32.952 25.2327,32.952 C25.9377,32.952 26.4437,32.721 26.7507,32.259 C26.6197,30.411 27.2017,29.157 28.5007,28.497 C28.8527,28.32 29.1607,28.232 29.4247,28.232 C29.6447,28.232 29.8537,28.287 30.0517,28.397 C30.2937,28.793 30.4147,29.223 30.4147,29.685 C30.4147,30.234 30.1397,31.038 29.5897,32.094 C29.4287,32.324 29.3187,32.699 29.2587,33.265 C28.5287,33.429 27.7937,33.556 27.0707,33.645 C24.9337,33.907 22.4017,33.876 20.3227,33 C19.7017,32.323 19.3907,31.504 19.3907,30.543 C19.3907,30.344 19.4127,30.136 19.4567,29.916 C19.7647,27.671 20.9647,25.79 23.0547,24.272 M29.0287,29.751 C28.4047,29.64 28.4387,30.691 28.5197,31.353 C28.8277,30.891 29.2087,30.195 29.1277,29.949 C29.0937,29.844 29.0967,29.763 29.0287,29.751 M45.2687,23.087 C45.2687,11.767 36.8217,2.415 25.8877,0.993 C26.4447,1.782 26.6747,2.984 26.5777,4.6 C26.3357,8.274 25.1907,12.377 23.1447,16.911 C21.2087,21.223 18.7887,24.953 15.8837,28.099 C17.3227,36.128 27.7497,34.945 33.4237,32.471 C33.6687,32.364 33.8197,32.614 33.8197,33.032 C33.8197,33.362 33.6637,33.499 33.4237,33.626 C32.2397,34.254 30.7747,34.777 29.1797,35.139 C29.2747,37.105 29.5637,40.403 29.9607,44.256 C38.8507,41.328 45.2687,32.956 45.2687,23.087" id="Fill-3" fill="#7F7F7F"></path>
            <path d="M18.7886,21.729 C22.3096,15.46 24.1356,9.154 24.2676,3.61 C24.2006,3.147 24.2076,2.651 24.0366,2.19 C23.7846,1.513 23.7276,1.333 23.3756,1.068 C22.9356,0.958 22.6386,0.936 22.4846,1.002 C20.2406,2.806 18.5576,5.59 17.4346,9.353 C15.7846,13.621 14.9996,18.836 14.9926,24.996 C14.9926,25.368 15.4656,25.841 15.6856,25.689 C16.2716,25.287 17.2476,23.885 18.7886,21.729 M14.0356,30.64 C12.5036,27.252 12.3856,24.865 12.3856,23.016 C12.3856,23.016 12.3476,21.343 12.3816,20.661 C12.4076,20.147 12.4106,19.705 12.4496,19.526 L12.5176,18.693 C13.4986,10.573 16.1346,4.659 20.4326,0.95 C9.3306,2.218 0.7056,11.647 0.7056,23.087 C0.7056,35.392 10.6836,45.37 22.9866,45.37 C24.5316,45.37 26.0396,45.213 27.4956,44.913 C26.9676,44.273 26.3676,43.455 25.6956,42.458 C24.4406,40.587 23.3186,39.388 22.3286,38.86 C21.9766,38.574 21.4706,38.123 20.8106,37.506 C20.2826,37 20.0186,36.461 20.0186,35.889 C20.0186,35.831 20.0206,35.771 20.0256,35.711 C20.5816,35.852 21.1486,35.959 21.7166,36.039 C21.7666,36.122 21.8386,36.215 21.9326,36.318 C22.8126,36.935 23.8036,37.88 24.9026,39.157 C25.0136,39.289 25.8936,40.389 27.5436,42.458 C27.4796,40.722 27.2476,37.892 26.9526,35.525 C21.8366,36.149 16.3126,35.094 14.0356,30.64" id="Fill-5" fill="#54C0A9"></path>
        </g>
    </g>
</svg>