<?xml version="1.0" encoding="UTF-8"?>
<svg width="155px" height="45px" viewBox="0 0 155 45" version="1.1" xmlns="http://www.w3.org/2000/svg" xmlns:xlink="http://www.w3.org/1999/xlink">
    <!-- Generator: Sketch 55.1 (78136) - https://sketchapp.com -->
    <title>New_LG_Logo</title>
    <desc>Created with Sketch.</desc>
    <defs>
        <path d="M6.493158,8.4286106 C6.38841908,8.58571899 6.26186144,8.7340969 6.1134813,8.8737488 C5.96510116,9.0134007 5.79344827,9.13559428 5.5985175,9.2403332 C5.40358673,9.34507212 5.18829328,9.42798919 4.9526307,9.4890869 C4.71696812,9.55018461 4.4594792,9.580733 4.180185,9.580733 C3.71467867,9.580733 3.28409178,9.49927061 2.8884114,9.3363434 C2.49273102,9.17341619 2.15233463,8.94793994 1.867212,8.6599079 C1.58208937,8.37187586 1.3595225,8.03002478 1.1995047,7.6343444 C1.0394869,7.23866402 0.9594792,6.80516776 0.9594792,6.3338426 C0.9594792,5.86251744 1.04094159,5.42902118 1.2038688,5.0333408 C1.36679601,4.63766042 1.59227226,4.29580934 1.8803043,4.0077773 C2.16833634,3.71974526 2.50873274,3.49426901 2.9015037,3.3313418 C3.29427466,3.16841459 3.7204975,3.0869522 4.180185,3.0869522 C4.40711933,3.0869522 4.62968621,3.11022717 4.8478923,3.1567778 C5.06609839,3.20332843 5.27120904,3.26878928 5.4632304,3.3531623 C5.65525176,3.43753532 5.82981401,3.5393633 5.9869224,3.6586493 C6.14403079,3.7779353 6.27495248,3.91322104 6.3796914,4.0645106 L5.8559994,4.4485514 C5.79199228,4.34963131 5.70616584,4.25071269 5.5985175,4.1517926 C5.49086916,4.05287251 5.36431153,3.96559138 5.2188408,3.8899466 C5.07337007,3.81430182 4.91480936,3.75320503 4.7431539,3.7066544 C4.57149844,3.66010377 4.38675339,3.6368288 4.1889132,3.6368288 C3.78741399,3.6368288 3.42810669,3.70956307 3.1109805,3.8550338 C2.79385431,4.00050453 2.52473751,4.19688706 2.303622,4.4441873 C2.08250649,4.69148754 1.91376298,4.97806057 1.7973864,5.303915 C1.68100982,5.62976943 1.6228224,5.9730752 1.6228224,6.3338426 C1.6228224,6.69461 1.6824645,7.03791577 1.8017505,7.3637702 C1.9210365,7.68962463 2.09123469,7.97619766 2.3123502,8.2234979 C2.53346571,8.47079814 2.80258251,8.66718067 3.1197087,8.8126514 C3.43683489,8.95812213 3.79323282,9.0308564 4.1889132,9.0308564 C4.54386177,9.0308564 4.8813488,8.95812213 5.2013844,8.8126514 C5.52142,8.66718067 5.78908212,8.434431 6.0043788,8.1143954 L6.493158,8.4286106 Z M7.540542,6.2378324 C7.540542,6.12727465 7.53763263,5.98471547 7.5318138,5.8101506 C7.52599497,5.63558573 7.51726686,5.4784797 7.5056292,5.3388278 L8.0729622,5.3388278 C8.08459986,5.44938555 8.09332797,5.57157913 8.0991468,5.7054122 C8.10496563,5.83924527 8.107875,5.94980136 8.107875,6.0370838 L8.1253314,6.0370838 C8.24170798,5.79851181 8.41627024,5.60503864 8.6490234,5.4566585 C8.88177656,5.30827836 9.14361995,5.2340894 9.4345614,5.2340894 C9.51020618,5.2340894 9.57857639,5.23699877 9.6396741,5.2428176 C9.70077181,5.24863643 9.76332328,5.26027391 9.8273304,5.2777304 L9.7487766,5.8363352 C9.71386363,5.82469754 9.65567621,5.81306006 9.5742126,5.8014224 C9.49274899,5.78978474 9.41128661,5.783966 9.329823,5.783966 C9.17271461,5.783966 9.02142733,5.81305971 8.8759566,5.871248 C8.73048587,5.92943629 8.60392824,6.02108147 8.4962799,6.1461863 C8.38863156,6.27129113 8.30135043,6.43130653 8.2344339,6.6262373 C8.16751737,6.82116807 8.1340596,7.05537243 8.1340596,7.3288574 L8.1340596,9.4236254 L7.540542,9.4236254 L7.540542,6.2378324 Z" id="path-1"></path>
        <path d="M13.6415538,7.0670114 C13.6240973,6.68296868 13.500449,6.36439257 13.2706053,6.1112735 C13.0407616,5.85815443 12.7134573,5.7315968 12.2886828,5.7315968 C12.0908426,5.7315968 11.9075522,5.76796394 11.7388062,5.8406993 C11.5700602,5.91343466 11.4216822,6.01235327 11.293668,6.1374581 C11.1656538,6.26256293 11.0638258,6.4051221 10.988181,6.5651399 C10.9125362,6.7251577 10.8688957,6.89244653 10.857258,7.0670114 L13.6415538,7.0670114 Z M14.2437996,7.2590318 L14.2437996,7.3899548 C14.2437996,7.43650543 14.2408902,7.48596474 14.2350714,7.5383342 L10.8485298,7.5383342 C10.8543486,7.74199322 10.8950798,7.9340117 10.9707246,8.1143954 C11.0463694,8.2947791 11.1511067,8.45188513 11.2849398,8.5857182 C11.4187729,8.71955127 11.5758789,8.82574331 11.7562626,8.9042975 C11.9366463,8.98285169 12.1315742,9.0221282 12.341052,9.0221282 C12.6494499,9.0221282 12.9156574,8.95084861 13.1396823,8.8082873 C13.3637072,8.66572599 13.5339054,8.50134653 13.650282,8.315144 L14.0954202,8.664272 C13.8510294,8.97266994 13.5819126,9.19378213 13.2880617,9.3276152 C12.9942108,9.46144827 12.6785441,9.5283638 12.341052,9.5283638 C12.0384729,9.5283638 11.7577186,9.47454044 11.4987807,9.3668921 C11.2398428,9.25924376 11.0172759,9.10941116 10.8310734,8.9173898 C10.6448709,8.72536844 10.4979476,8.49843751 10.3902993,8.2365902 C10.282651,7.97474289 10.2288276,7.68962454 10.2288276,7.3812266 C10.2288276,7.07282866 10.2811963,6.78771031 10.3859352,6.525863 C10.4906741,6.26401569 10.6361427,6.03708476 10.8223452,5.8450634 C11.0085477,5.65304204 11.2267505,5.50320944 11.4769602,5.3955611 C11.7271699,5.28791276 11.9977413,5.2340894 12.2886828,5.2340894 C12.6087184,5.2340894 12.8909274,5.28791276 13.1353182,5.3955611 C13.379709,5.50320944 13.583365,5.64867798 13.7462922,5.8319711 C13.9092194,6.01526422 14.0328677,6.22910298 14.1172407,6.4734938 C14.2016137,6.71788462 14.2437996,6.979728 14.2437996,7.2590318 Z" id="path-2"></path>
        <path d="M18.0362025,6.787709 C18.0362025,6.43276043 17.9431026,6.16800767 17.7569001,5.9934428 C17.5706976,5.81887793 17.3001261,5.7315968 16.9451775,5.7315968 C16.7007867,5.7315968 16.4738557,5.77523736 16.2643779,5.8625198 C16.0549001,5.94980224 15.8774284,6.06617707 15.7319577,6.2116478 L15.4002861,5.8188788 C15.5690321,5.65013276 15.791599,5.51048295 16.0679934,5.3999252 C16.3443878,5.28936745 16.6571452,5.2340894 17.0062749,5.2340894 C17.2273904,5.2340894 17.4339557,5.26463779 17.6259771,5.3257355 C17.8179985,5.38683321 17.986742,5.47847839 18.1322127,5.6006738 C18.2776834,5.72286921 18.3911489,5.87706587 18.4726125,6.0632684 C18.5540761,6.24947093 18.5948073,6.46767375 18.5948073,6.7178834 L18.5948073,8.5071644 C18.5948073,8.66427279 18.600626,8.82719756 18.6122637,8.9959436 C18.6239014,9.16468964 18.6413576,9.30724882 18.6646329,9.4236254 L18.1322127,9.4236254 C18.1147562,9.32470531 18.1002094,9.21705858 18.0885717,9.100682 C18.076934,8.98430542 18.0711153,8.87083995 18.0711153,8.7602822 L18.0536589,8.7602822 C17.8674564,9.03376717 17.656527,9.2301497 17.4208644,9.3494357 C17.1852018,9.4687217 16.9015382,9.5283638 16.5698649,9.5283638 C16.4127565,9.5283638 16.2512864,9.50654352 16.0854498,9.4629023 C15.9196132,9.41926108 15.7683259,9.34798149 15.6315834,9.2490614 C15.4948409,9.15014131 15.3813755,9.02212899 15.2911836,8.8650206 C15.2009917,8.70791221 15.1558965,8.51589373 15.1558965,8.2889594 C15.1558965,7.97474263 15.2359042,7.72599142 15.395922,7.5426983 C15.5559398,7.35940518 15.7697786,7.22266475 16.0374447,7.1324729 C16.3051108,7.04228105 16.6120495,6.98409363 16.9582698,6.9579089 C17.3044901,6.93172417 17.6637974,6.918632 18.0362025,6.918632 L18.0362025,6.787709 Z M17.8616385,7.3812266 C17.6172477,7.3812266 17.3714058,7.3914094 17.1241056,7.4117753 C16.8768054,7.4321412 16.6527838,7.47287239 16.4520342,7.5339701 C16.2512846,7.59506781 16.0869051,7.68380362 15.9588909,7.8001802 C15.8308767,7.91655678 15.7668705,8.07075344 15.7668705,8.2627748 C15.7668705,8.40824553 15.7945095,8.53043911 15.8497884,8.6293592 C15.9050673,8.72827929 15.9792562,8.80828699 16.0723575,8.8693847 C16.1654588,8.93048241 16.2687414,8.97412297 16.3822086,9.0003077 C16.4956758,9.02649243 16.6105959,9.0395846 16.7269725,9.0395846 C16.9364503,9.0395846 17.1226501,9.00321746 17.2855773,8.9304821 C17.4485045,8.85774674 17.5852449,8.75882813 17.6958027,8.6337233 C17.8063605,8.50861847 17.8907322,8.36460461 17.9489205,8.2016774 C18.0071088,8.03875019 18.0362025,7.8670973 18.0362025,7.6867136 L18.0362025,7.3812266 L17.8616385,7.3812266 Z M21.8766105,5.8363352 L20.7244881,5.8363352 L20.7244881,8.2191338 C20.7244881,8.37042336 20.739035,8.49552631 20.7681291,8.5944464 C20.7972232,8.69336649 20.8394091,8.77046482 20.894688,8.8257437 C20.9499669,8.88102258 21.0154277,8.9188444 21.0910725,8.9392103 C21.1667173,8.9595762 21.2481797,8.969759 21.3354621,8.969759 C21.4169257,8.969759 21.5027521,8.95812152 21.592944,8.9348462 C21.6831359,8.91157088 21.7689623,8.8795678 21.8504259,8.838836 L21.8766105,9.3537998 C21.7718716,9.3945316 21.6627702,9.42508 21.549303,9.4454459 C21.4358358,9.4658118 21.3121876,9.4759946 21.1783545,9.4759946 C21.0677967,9.4759946 20.9514219,9.46144775 20.8292265,9.4323536 C20.7070311,9.40325945 20.5935656,9.34798141 20.4888267,9.2665178 C20.3840878,9.18505419 20.2982613,9.0744981 20.2313448,8.9348462 C20.1644283,8.7951943 20.1309705,8.61190393 20.1309705,8.3849696 L20.1309705,5.8363352 L19.2843351,5.8363352 L19.2843351,5.3388278 L20.1309705,5.3388278 L20.1309705,4.1867054 L20.7244881,4.1867054 L20.7244881,5.3388278 L21.8766105,5.3388278 L21.8766105,5.8363352 Z" id="path-3"></path>
        <path d="M25.9177671,7.0670114 C25.9003106,6.68296868 25.7766623,6.36439257 25.5468186,6.1112735 C25.3169749,5.85815443 24.9896706,5.7315968 24.5648961,5.7315968 C24.3670559,5.7315968 24.1837655,5.76796394 24.0150195,5.8406993 C23.8462735,5.91343466 23.6978955,6.01235327 23.5698813,6.1374581 C23.4418671,6.26256293 23.3400391,6.4051221 23.2643943,6.5651399 C23.1887495,6.7251577 23.145109,6.89244653 23.1334713,7.0670114 L25.9177671,7.0670114 Z M26.5200129,7.2590318 L26.5200129,7.3899548 C26.5200129,7.43650543 26.5171035,7.48596474 26.5112847,7.5383342 L23.1247431,7.5383342 C23.1305619,7.74199322 23.1712931,7.9340117 23.2469379,8.1143954 C23.3225827,8.2947791 23.42732,8.45188513 23.5611531,8.5857182 C23.6949862,8.71955127 23.8520922,8.82574331 24.0324759,8.9042975 C24.2128596,8.98285169 24.4077875,9.0221282 24.6172653,9.0221282 C24.9256632,9.0221282 25.1918707,8.95084861 25.4158956,8.8082873 C25.6399205,8.66572599 25.8101187,8.50134653 25.9264953,8.315144 L26.3716335,8.664272 C26.1272427,8.97266994 25.8581259,9.19378213 25.564275,9.3276152 C25.2704241,9.46144827 24.9547574,9.5283638 24.6172653,9.5283638 C24.3146862,9.5283638 24.0339319,9.47454044 23.774994,9.3668921 C23.5160561,9.25924376 23.2934892,9.10941116 23.1072867,8.9173898 C22.9210842,8.72536844 22.7741609,8.49843751 22.6665126,8.2365902 C22.5588643,7.97474289 22.5050409,7.68962454 22.5050409,7.3812266 C22.5050409,7.07282866 22.5574096,6.78771031 22.6621485,6.525863 C22.7668874,6.26401569 22.912356,6.03708476 23.0985585,5.8450634 C23.284761,5.65304204 23.5029638,5.50320944 23.7531735,5.3955611 C24.0033832,5.28791276 24.2739546,5.2340894 24.5648961,5.2340894 C24.8849317,5.2340894 25.1671407,5.28791276 25.4115315,5.3955611 C25.6559223,5.50320944 25.8595783,5.64867798 26.0225055,5.8319711 C26.1854327,6.01526422 26.309081,6.22910298 26.393454,6.4734938 C26.477827,6.71788462 26.5200129,6.979728 26.5200129,7.2590318 Z" id="path-4"></path>
        <path d="M28.609544,9.0046718 C28.609544,9.12686721 28.5659034,9.23596862 28.478621,9.3319793 C28.3913386,9.42798998 28.2778731,9.4759946 28.1382212,9.4759946 C27.9985693,9.4759946 27.8851038,9.42798998 27.7978214,9.3319793 C27.710539,9.23596862 27.6668984,9.12686721 27.6668984,9.0046718 C27.6668984,8.88247639 27.710539,8.77337498 27.7978214,8.6773643 C27.8851038,8.58135362 27.9985693,8.533349 28.1382212,8.533349 C28.2778731,8.533349 28.3913386,8.58135362 28.478621,8.6773643 C28.5659034,8.77337498 28.609544,8.88247639 28.609544,9.0046718 Z" id="path-5"></path>
        <path d="M34.8152942,8.8650206 L38.123282,8.8650206 L38.123282,9.4236254 L34.1868638,9.4236254 L34.1868638,3.2440598 L38.0185436,3.2440598 L38.0185436,3.8026646 L34.8152942,3.8026646 L34.8152942,5.9323454 L37.8090668,5.9323454 L37.8090668,6.482222 L34.8152942,6.482222 L34.8152942,8.8650206 Z M39.9300194,9.4236254 L39.3365018,9.4236254 L39.3365018,2.8251062 L39.9300194,2.8251062 L39.9300194,9.4236254 Z" id="path-6"></path>
        <path d="M44.6345192,7.0670114 C44.6170627,6.68296868 44.4934144,6.36439257 44.2635707,6.1112735 C44.033727,5.85815443 43.7064227,5.7315968 43.2816482,5.7315968 C43.083808,5.7315968 42.9005176,5.76796394 42.7317716,5.8406993 C42.5630256,5.91343466 42.4146476,6.01235327 42.2866334,6.1374581 C42.1586192,6.26256293 42.0567912,6.4051221 41.9811464,6.5651399 C41.9055016,6.7251577 41.8618611,6.89244653 41.8502234,7.0670114 L44.6345192,7.0670114 Z M45.236765,7.2590318 L45.236765,7.3899548 C45.236765,7.43650543 45.2338556,7.48596474 45.2280368,7.5383342 L41.8414952,7.5383342 C41.847314,7.74199322 41.8880452,7.9340117 41.96369,8.1143954 C42.0393348,8.2947791 42.1440721,8.45188513 42.2779052,8.5857182 C42.4117383,8.71955127 42.5688443,8.82574331 42.749228,8.9042975 C42.9296117,8.98285169 43.1245396,9.0221282 43.3340174,9.0221282 C43.6424153,9.0221282 43.9086228,8.95084861 44.1326477,8.8082873 C44.3566726,8.66572599 44.5268708,8.50134653 44.6432474,8.315144 L45.0883856,8.664272 C44.8439948,8.97266994 44.574878,9.19378213 44.2810271,9.3276152 C43.9871762,9.46144827 43.6715095,9.5283638 43.3340174,9.5283638 C43.0314383,9.5283638 42.750684,9.47454044 42.4917461,9.3668921 C42.2328082,9.25924376 42.0102413,9.10941116 41.8240388,8.9173898 C41.6378363,8.72536844 41.490913,8.49843751 41.3832647,8.2365902 C41.2756164,7.97474289 41.221793,7.68962454 41.221793,7.3812266 C41.221793,7.07282866 41.2741617,6.78771031 41.3789006,6.525863 C41.4836395,6.26401569 41.6291081,6.03708476 41.8153106,5.8450634 C42.0015131,5.65304204 42.2197159,5.50320944 42.4699256,5.3955611 C42.7201353,5.28791276 42.9907067,5.2340894 43.2816482,5.2340894 C43.6016838,5.2340894 43.8838928,5.28791276 44.1282836,5.3955611 C44.3726744,5.50320944 44.5763304,5.64867798 44.7392576,5.8319711 C44.9021848,6.01526422 45.0258331,6.22910298 45.1102061,6.4734938 C45.1945791,6.71788462 45.236765,6.979728 45.236765,7.2590318 Z" id="path-7"></path>
        <path d="M48.1825325,9.4236254 L47.5279175,9.4236254 L45.8608313,5.3388278 L46.5241745,5.3388278 L47.8508609,8.795195 L47.8683173,8.795195 L49.2037319,5.3388278 L49.8408905,5.3388278 L48.1825325,9.4236254 Z M53.3408987,6.787709 C53.3408987,6.43276043 53.2477988,6.16800767 53.0615963,5.9934428 C52.8753938,5.81887793 52.6048223,5.7315968 52.2498737,5.7315968 C52.0054829,5.7315968 51.7785519,5.77523736 51.5690741,5.8625198 C51.3595963,5.94980224 51.1821246,6.06617707 51.0366539,6.2116478 L50.7049823,5.8188788 C50.8737283,5.65013276 51.0962952,5.51048295 51.3726896,5.3999252 C51.649084,5.28936745 51.9618414,5.2340894 52.3109711,5.2340894 C52.5320866,5.2340894 52.7386519,5.26463779 52.9306733,5.3257355 C53.1226947,5.38683321 53.2914382,5.47847839 53.4369089,5.6006738 C53.5823796,5.72286921 53.6958451,5.87706587 53.7773087,6.0632684 C53.8587723,6.24947093 53.8995035,6.46767375 53.8995035,6.7178834 L53.8995035,8.5071644 C53.8995035,8.66427279 53.9053222,8.82719756 53.9169599,8.9959436 C53.9285976,9.16468964 53.9460538,9.30724882 53.9693291,9.4236254 L53.4369089,9.4236254 C53.4194524,9.32470531 53.4049056,9.21705858 53.3932679,9.100682 C53.3816302,8.98430542 53.3758115,8.87083995 53.3758115,8.7602822 L53.3583551,8.7602822 C53.1721526,9.03376717 52.9612232,9.2301497 52.7255606,9.3494357 C52.489898,9.4687217 52.2062344,9.5283638 51.8745611,9.5283638 C51.7174527,9.5283638 51.5559826,9.50654352 51.390146,9.4629023 C51.2243094,9.41926108 51.0730221,9.34798149 50.9362796,9.2490614 C50.7995371,9.15014131 50.6860717,9.02212899 50.5958798,8.8650206 C50.5056879,8.70791221 50.4605927,8.51589373 50.4605927,8.2889594 C50.4605927,7.97474263 50.5406004,7.72599142 50.7006182,7.5426983 C50.860636,7.35940518 51.0744748,7.22266475 51.3421409,7.1324729 C51.609807,7.04228105 51.9167457,6.98409363 52.262966,6.9579089 C52.6091863,6.93172417 52.9684936,6.918632 53.3408987,6.918632 L53.3408987,6.787709 Z M53.1663347,7.3812266 C52.9219439,7.3812266 52.676102,7.3914094 52.4288018,7.4117753 C52.1815016,7.4321412 51.95748,7.47287239 51.7567304,7.5339701 C51.5559808,7.59506781 51.3916013,7.68380362 51.2635871,7.8001802 C51.1355729,7.91655678 51.0715667,8.07075344 51.0715667,8.2627748 C51.0715667,8.40824553 51.0992057,8.53043911 51.1544846,8.6293592 C51.2097635,8.72827929 51.2839524,8.80828699 51.3770537,8.8693847 C51.470155,8.93048241 51.5734376,8.97412297 51.6869048,9.0003077 C51.800372,9.02649243 51.9152921,9.0395846 52.0316687,9.0395846 C52.2411465,9.0395846 52.4273463,9.00321746 52.5902735,8.9304821 C52.7532007,8.85774674 52.8899411,8.75882813 53.0004989,8.6337233 C53.1110567,8.50861847 53.1954284,8.36460461 53.2536167,8.2016774 C53.311805,8.03875019 53.3408987,7.8670973 53.3408987,7.6867136 L53.3408987,7.3812266 L53.1663347,7.3812266 Z M57.1813067,5.8363352 L56.0291843,5.8363352 L56.0291843,8.2191338 C56.0291843,8.37042336 56.0437312,8.49552631 56.0728253,8.5944464 C56.1019194,8.69336649 56.1441053,8.77046482 56.1993842,8.8257437 C56.2546631,8.88102258 56.3201239,8.9188444 56.3957687,8.9392103 C56.4714135,8.9595762 56.5528759,8.969759 56.6401583,8.969759 C56.7216219,8.969759 56.8074483,8.95812152 56.8976402,8.9348462 C56.9878321,8.91157088 57.0736585,8.8795678 57.1551221,8.838836 L57.1813067,9.3537998 C57.0765678,9.3945316 56.9674664,9.42508 56.8539992,9.4454459 C56.740532,9.4658118 56.6168838,9.4759946 56.4830507,9.4759946 C56.3724929,9.4759946 56.2561181,9.46144775 56.1339227,9.4323536 C56.0117273,9.40325945 55.8982618,9.34798141 55.7935229,9.2665178 C55.688784,9.18505419 55.6029575,9.0744981 55.536041,8.9348462 C55.4691245,8.7951943 55.4356667,8.61190393 55.4356667,8.3849696 L55.4356667,5.8363352 L54.5890313,5.8363352 L54.5890313,5.3388278 L55.4356667,5.3388278 L55.4356667,4.1867054 L56.0291843,4.1867054 L56.0291843,5.3388278 L57.1813067,5.3388278 L57.1813067,5.8363352 Z" id="path-8"></path>
        <path d="M61.2224633,7.0670114 C61.2050068,6.68296868 61.0813585,6.36439257 60.8515148,6.1112735 C60.6216711,5.85815443 60.2943668,5.7315968 59.8695923,5.7315968 C59.6717521,5.7315968 59.4884617,5.76796394 59.3197157,5.8406993 C59.1509697,5.91343466 59.0025917,6.01235327 58.8745775,6.1374581 C58.7465633,6.26256293 58.6447353,6.4051221 58.5690905,6.5651399 C58.4934457,6.7251577 58.4498052,6.89244653 58.4381675,7.0670114 L61.2224633,7.0670114 Z M61.8247091,7.2590318 L61.8247091,7.3899548 C61.8247091,7.43650543 61.8217997,7.48596474 61.8159809,7.5383342 L58.4294393,7.5383342 C58.4352581,7.74199322 58.4759893,7.9340117 58.5516341,8.1143954 C58.6272789,8.2947791 58.7320162,8.45188513 58.8658493,8.5857182 C58.9996824,8.71955127 59.1567884,8.82574331 59.3371721,8.9042975 C59.5175558,8.98285169 59.7124837,9.0221282 59.9219615,9.0221282 C60.2303594,9.0221282 60.4965669,8.95084861 60.7205918,8.8082873 C60.9446167,8.66572599 61.1148149,8.50134653 61.2311915,8.315144 L61.6763297,8.664272 C61.4319389,8.97266994 61.1628221,9.19378213 60.8689712,9.3276152 C60.5751203,9.46144827 60.2594536,9.5283638 59.9219615,9.5283638 C59.6193824,9.5283638 59.3386281,9.47454044 59.0796902,9.3668921 C58.8207523,9.25924376 58.5981854,9.10941116 58.4119829,8.9173898 C58.2257804,8.72536844 58.0788571,8.49843751 57.9712088,8.2365902 C57.8635605,7.97474289 57.8097371,7.68962454 57.8097371,7.3812266 C57.8097371,7.07282866 57.8621058,6.78771031 57.9668447,6.525863 C58.0715836,6.26401569 58.2170522,6.03708476 58.4032547,5.8450634 C58.5894572,5.65304204 58.80766,5.50320944 59.0578697,5.3955611 C59.3080794,5.28791276 59.5786508,5.2340894 59.8695923,5.2340894 C60.1896279,5.2340894 60.4718369,5.28791276 60.7162277,5.3955611 C60.9606185,5.50320944 61.1642745,5.64867798 61.3272017,5.8319711 C61.4901289,6.01526422 61.6137772,6.22910298 61.6981502,6.4734938 C61.7825232,6.71788462 61.8247091,6.979728 61.8247091,7.2590318 Z" id="path-9"></path>
        <path d="M63.915113,9.0046718 C63.915113,9.12686721 63.8714724,9.23596862 63.78419,9.3319793 C63.6969076,9.42798998 63.5834421,9.4759946 63.4437902,9.4759946 C63.3041383,9.4759946 63.1906728,9.42798998 63.1033904,9.3319793 C63.016108,9.23596862 62.9724674,9.12686721 62.9724674,9.0046718 C62.9724674,8.88247639 63.016108,8.77337498 63.1033904,8.6773643 C63.1906728,8.58135362 63.3041383,8.533349 63.4437902,8.533349 C63.5834421,8.533349 63.6969076,8.58135362 63.78419,8.6773643 C63.8714724,8.77337498 63.915113,8.88247639 63.915113,9.0046718 Z" id="path-10"></path>
        <path d="M70.1252273,8.8650206 L73.4332151,8.8650206 L73.4332151,9.4236254 L69.4967969,9.4236254 L69.4967969,3.2440598 L73.3284767,3.2440598 L73.3284767,3.8026646 L70.1252273,3.8026646 L70.1252273,5.9323454 L73.1189999,5.9323454 L73.1189999,6.482222 L70.1252273,6.482222 L70.1252273,8.8650206 Z M75.1613987,5.3388278 C75.1730364,5.44938555 75.1817645,5.57157913 75.1875833,5.7054122 C75.1934021,5.83924527 75.1963115,5.94980136 75.1963115,6.0370838 L75.2137679,6.0370838 C75.3301445,5.79851181 75.5192536,5.60503864 75.7811009,5.4566585 C76.0429482,5.30827836 76.3193384,5.2340894 76.6102799,5.2340894 C77.1281557,5.2340894 77.5165567,5.38828606 77.7754946,5.696684 C78.0344325,6.00508194 78.1638995,6.41239387 78.1638995,6.918632 L78.1638995,9.4236254 L77.5703819,9.4236254 L77.5703819,7.1630216 C77.5703819,6.94772492 77.5529257,6.75279707 77.5180127,6.5782322 C77.4830997,6.40366733 77.4234576,6.25383473 77.3390846,6.1287299 C77.2547116,6.00362507 77.1412461,5.90616115 76.9986848,5.8363352 C76.8561235,5.76650925 76.6771972,5.7315968 76.4619005,5.7315968 C76.3047921,5.7315968 76.1520501,5.76359988 76.00367,5.827607 C75.8552899,5.89161412 75.7229135,5.98907805 75.6065369,6.1200017 C75.4901603,6.25092535 75.3970604,6.4167595 75.3272345,6.6175091 C75.2574086,6.8182587 75.2224961,7.05537243 75.2224961,7.3288574 L75.2224961,9.4236254 L74.6289785,9.4236254 L74.6289785,6.2378324 C74.6289785,6.12727465 74.6260691,5.98471547 74.6202503,5.8101506 C74.6144315,5.63558573 74.6057034,5.4784797 74.5940657,5.3388278 L75.1613987,5.3388278 Z M79.9182677,10.2440762 C80.0811949,10.453554 80.3037618,10.6310257 80.585975,10.7764964 C80.8681882,10.9219671 81.1663987,10.9947014 81.4806155,10.9947014 C81.771557,10.9947014 82.0188535,10.9525155 82.2225125,10.8681425 C82.4261715,10.7837695 82.590551,10.6688493 82.7156558,10.5233786 C82.8407606,10.3779079 82.9324058,10.2077097 82.9905941,10.0127789 C83.0487824,9.81784813 83.0778761,9.60982811 83.0778761,9.3887126 L83.0778761,8.620631 L83.0604197,8.620631 C82.9033039,8.87665948 82.6807444,9.0744967 82.3927124,9.2141486 C82.1046804,9.3538005 81.8122886,9.4236254 81.5155283,9.4236254 C81.1954927,9.4236254 80.9060103,9.37125672 80.6470724,9.2665178 C80.3881345,9.16177888 80.1670223,9.01776502 79.9837292,8.8344719 C79.8004361,8.65117878 79.6578769,8.43152128 79.5560474,8.1754928 C79.4542179,7.91946432 79.4033039,7.64307408 79.4033039,7.3463138 C79.4033039,7.05537235 79.4542179,6.78189148 79.5560474,6.525863 C79.6578769,6.26983452 79.8004361,6.04581296 79.9837292,5.8537916 C80.1670223,5.66177024 80.3881345,5.51048295 80.6470724,5.3999252 C80.9060103,5.28936745 81.1954927,5.2340894 81.5155283,5.2340894 C81.8122886,5.2340894 82.1032257,5.3039143 82.3883483,5.4435662 C82.6734709,5.5832181 82.8974925,5.78396469 83.0604197,6.045812 L83.0778761,6.045812 L83.0778761,5.3388278 L83.6713937,5.3388278 L83.6713937,9.3887126 C83.6713937,9.60982811 83.6408453,9.84548715 83.5797476,10.0956968 C83.5186499,10.3459065 83.4051844,10.5757468 83.2393478,10.7852246 C83.0735112,10.9947024 82.8480349,11.1692647 82.5629123,11.3089166 C82.2777897,11.4485685 81.9082996,11.5183934 81.4544309,11.5183934 C81.076207,11.5183934 80.715445,11.4456591 80.3721341,11.3001884 C80.0288232,11.1547177 79.7349767,10.9539711 79.4905859,10.6979426 L79.9182677,10.2440762 Z M80.0317343,7.3288574 C80.0317343,7.54415408 80.0666468,7.74781004 80.1364727,7.9398314 C80.2062986,8.13185276 80.3066719,8.30059627 80.4375956,8.446067 C80.5685193,8.59153773 80.7299893,8.70645788 80.9220107,8.7908309 C81.1140321,8.87520392 81.3322349,8.9173898 81.5766257,8.9173898 C81.80356,8.9173898 82.0130347,8.87956798 82.2050561,8.8039232 C82.3970775,8.72827842 82.5629116,8.6206317 82.7025635,8.4809798 C82.8422154,8.3413279 82.9513168,8.17403907 83.029871,7.9791083 C83.1084252,7.78417753 83.1477017,7.56742939 83.1477017,7.3288574 C83.1477017,7.11356072 83.1084252,6.90990476 83.029871,6.7178834 C82.9513168,6.52586204 82.8422154,6.35711853 82.7025635,6.2116478 C82.5629116,6.06617707 82.3970775,5.94980224 82.2050561,5.8625198 C82.0130347,5.77523736 81.80356,5.7315968 81.5766257,5.7315968 C81.3322349,5.7315968 81.1140321,5.77523736 80.9220107,5.8625198 C80.7299893,5.94980224 80.5685193,6.06617707 80.4375956,6.2116478 C80.3066719,6.35711853 80.2062986,6.52586204 80.1364727,6.7178834 C80.0666468,6.90990476 80.0317343,7.11356072 80.0317343,7.3288574 Z M87.7911041,6.787709 C87.7911041,6.43276043 87.6980042,6.16800767 87.5118017,5.9934428 C87.3255992,5.81887793 87.0550277,5.7315968 86.7000791,5.7315968 C86.4556883,5.7315968 86.2287573,5.77523736 86.0192795,5.8625198 C85.8098017,5.94980224 85.63233,6.06617707 85.4868593,6.2116478 L85.1551877,5.8188788 C85.3239337,5.65013276 85.5465006,5.51048295 85.822895,5.3999252 C86.0992894,5.28936745 86.4120468,5.2340894 86.7611765,5.2340894 C86.982292,5.2340894 87.1888573,5.26463779 87.3808787,5.3257355 C87.5729001,5.38683321 87.7416436,5.47847839 87.8871143,5.6006738 C88.032585,5.72286921 88.1460505,5.87706587 88.2275141,6.0632684 C88.3089777,6.24947093 88.3497089,6.46767375 88.3497089,6.7178834 L88.3497089,8.5071644 C88.3497089,8.66427279 88.3555276,8.82719756 88.3671653,8.9959436 C88.378803,9.16468964 88.3962592,9.30724882 88.4195345,9.4236254 L87.8871143,9.4236254 C87.8696578,9.32470531 87.855111,9.21705858 87.8434733,9.100682 C87.8318356,8.98430542 87.8260169,8.87083995 87.8260169,8.7602822 L87.8085605,8.7602822 C87.622358,9.03376717 87.4114286,9.2301497 87.175766,9.3494357 C86.9401034,9.4687217 86.6564398,9.5283638 86.3247665,9.5283638 C86.1676581,9.5283638 86.006188,9.50654352 85.8403514,9.4629023 C85.6745148,9.41926108 85.5232275,9.34798149 85.386485,9.2490614 C85.2497425,9.15014131 85.1362771,9.02212899 85.0460852,8.8650206 C84.9558933,8.70791221 84.9107981,8.51589373 84.9107981,8.2889594 C84.9107981,7.97474263 84.9908058,7.72599142 85.1508236,7.5426983 C85.3108414,7.35940518 85.5246802,7.22266475 85.7923463,7.1324729 C86.0600124,7.04228105 86.3669511,6.98409363 86.7131714,6.9579089 C87.0593917,6.93172417 87.418699,6.918632 87.7911041,6.918632 L87.7911041,6.787709 Z M87.6165401,7.3812266 C87.3721493,7.3812266 87.1263074,7.3914094 86.8790072,7.4117753 C86.631707,7.4321412 86.4076854,7.47287239 86.2069358,7.5339701 C86.0061862,7.59506781 85.8418067,7.68380362 85.7137925,7.8001802 C85.5857783,7.91655678 85.5217721,8.07075344 85.5217721,8.2627748 C85.5217721,8.40824553 85.5494111,8.53043911 85.60469,8.6293592 C85.6599689,8.72827929 85.7341578,8.80828699 85.8272591,8.8693847 C85.9203604,8.93048241 86.023643,8.97412297 86.1371102,9.0003077 C86.2505774,9.02649243 86.3654975,9.0395846 86.4818741,9.0395846 C86.6913519,9.0395846 86.8775517,9.00321746 87.0404789,8.9304821 C87.2034061,8.85774674 87.3401465,8.75882813 87.4507043,8.6337233 C87.5612621,8.50861847 87.6456338,8.36460461 87.7038221,8.2016774 C87.7620104,8.03875019 87.7911041,7.8670973 87.7911041,7.6867136 L87.7911041,7.3812266 L87.6165401,7.3812266 Z M90.0953489,10.2440762 C90.2582761,10.453554 90.480843,10.6310257 90.7630562,10.7764964 C91.0452694,10.9219671 91.3434799,10.9947014 91.6576967,10.9947014 C91.9486382,10.9947014 92.1959347,10.9525155 92.3995937,10.8681425 C92.6032527,10.7837695 92.7676322,10.6688493 92.892737,10.5233786 C93.0178418,10.3779079 93.109487,10.2077097 93.1676753,10.0127789 C93.2258636,9.81784813 93.2549573,9.60982811 93.2549573,9.3887126 L93.2549573,8.620631 L93.2375009,8.620631 C93.0803851,8.87665948 92.8578256,9.0744967 92.5697936,9.2141486 C92.2817616,9.3538005 91.9893698,9.4236254 91.6926095,9.4236254 C91.3725739,9.4236254 91.0830915,9.37125672 90.8241536,9.2665178 C90.5652157,9.16177888 90.3441035,9.01776502 90.1608104,8.8344719 C89.9775173,8.65117878 89.8349581,8.43152128 89.7331286,8.1754928 C89.6312991,7.91946432 89.5803851,7.64307408 89.5803851,7.3463138 C89.5803851,7.05537235 89.6312991,6.78189148 89.7331286,6.525863 C89.8349581,6.26983452 89.9775173,6.04581296 90.1608104,5.8537916 C90.3441035,5.66177024 90.5652157,5.51048295 90.8241536,5.3999252 C91.0830915,5.28936745 91.3725739,5.2340894 91.6926095,5.2340894 C91.9893698,5.2340894 92.2803069,5.3039143 92.5654295,5.4435662 C92.8505521,5.5832181 93.0745737,5.78396469 93.2375009,6.045812 L93.2549573,6.045812 L93.2549573,5.3388278 L93.8484749,5.3388278 L93.8484749,9.3887126 C93.8484749,9.60982811 93.8179265,9.84548715 93.7568288,10.0956968 C93.6957311,10.3459065 93.5822656,10.5757468 93.416429,10.7852246 C93.2505924,10.9947024 93.0251161,11.1692647 92.7399935,11.3089166 C92.4548709,11.4485685 92.0853808,11.5183934 91.6315121,11.5183934 C91.2532882,11.5183934 90.8925262,11.4456591 90.5492153,11.3001884 C90.2059044,11.1547177 89.9120579,10.9539711 89.6676671,10.6979426 L90.0953489,10.2440762 Z M90.2088155,7.3288574 C90.2088155,7.54415408 90.243728,7.74781004 90.3135539,7.9398314 C90.3833798,8.13185276 90.4837531,8.30059627 90.6146768,8.446067 C90.7456005,8.59153773 90.9070705,8.70645788 91.0990919,8.7908309 C91.2911133,8.87520392 91.5093161,8.9173898 91.7537069,8.9173898 C91.9806412,8.9173898 92.1901159,8.87956798 92.3821373,8.8039232 C92.5741587,8.72827842 92.7399928,8.6206317 92.8796447,8.4809798 C93.0192966,8.3413279 93.128398,8.17403907 93.2069522,7.9791083 C93.2855064,7.78417753 93.3247829,7.56742939 93.3247829,7.3288574 C93.3247829,7.11356072 93.2855064,6.90990476 93.2069522,6.7178834 C93.128398,6.52586204 93.0192966,6.35711853 92.8796447,6.2116478 C92.7399928,6.06617707 92.5741587,5.94980224 92.3821373,5.8625198 C92.1901159,5.77523736 91.9806412,5.7315968 91.7537069,5.7315968 C91.5093161,5.7315968 91.2911133,5.77523736 91.0990919,5.8625198 C90.9070705,5.94980224 90.7456005,6.06617707 90.6146768,6.2116478 C90.4837531,6.35711853 90.3833798,6.52586204 90.3135539,6.7178834 C90.243728,6.90990476 90.2088155,7.11356072 90.2088155,7.3288574 Z" id="path-11"></path>
        <path d="M98.5093337,7.0670114 C98.4918772,6.68296868 98.3682289,6.36439257 98.1383852,6.1112735 C97.9085415,5.85815443 97.5812372,5.7315968 97.1564627,5.7315968 C96.9586225,5.7315968 96.7753321,5.76796394 96.6065861,5.8406993 C96.4378401,5.91343466 96.2894621,6.01235327 96.1614479,6.1374581 C96.0334337,6.26256293 95.9316057,6.4051221 95.8559609,6.5651399 C95.7803161,6.7251577 95.7366756,6.89244653 95.7250379,7.0670114 L98.5093337,7.0670114 Z M99.1115795,7.2590318 L99.1115795,7.3899548 C99.1115795,7.43650543 99.1086701,7.48596474 99.1028513,7.5383342 L95.7163097,7.5383342 C95.7221285,7.74199322 95.7628597,7.9340117 95.8385045,8.1143954 C95.9141493,8.2947791 96.0188866,8.45188513 96.1527197,8.5857182 C96.2865528,8.71955127 96.4436588,8.82574331 96.6240425,8.9042975 C96.8044262,8.98285169 96.9993541,9.0221282 97.2088319,9.0221282 C97.5172298,9.0221282 97.7834373,8.95084861 98.0074622,8.8082873 C98.2314871,8.66572599 98.4016853,8.50134653 98.5180619,8.315144 L98.9632001,8.664272 C98.7188093,8.97266994 98.4496925,9.19378213 98.1558416,9.3276152 C97.8619907,9.46144827 97.546324,9.5283638 97.2088319,9.5283638 C96.9062528,9.5283638 96.6254985,9.47454044 96.3665606,9.3668921 C96.1076227,9.25924376 95.8850558,9.10941116 95.6988533,8.9173898 C95.5126508,8.72536844 95.3657275,8.49843751 95.2580792,8.2365902 C95.1504309,7.97474289 95.0966075,7.68962454 95.0966075,7.3812266 C95.0966075,7.07282866 95.1489762,6.78771031 95.2537151,6.525863 C95.358454,6.26401569 95.5039226,6.03708476 95.6901251,5.8450634 C95.8763276,5.65304204 96.0945304,5.50320944 96.3447401,5.3955611 C96.5949498,5.28791276 96.8655212,5.2340894 97.1564627,5.2340894 C97.4764983,5.2340894 97.7587073,5.28791276 98.0030981,5.3955611 C98.2474889,5.50320944 98.4511449,5.64867798 98.6140721,5.8319711 C98.7769993,6.01526422 98.9006476,6.22910298 98.9850206,6.4734938 C99.0693936,6.71788462 99.1115795,6.979728 99.1115795,7.2590318 Z" id="path-12"></path>
        <path d="M101.201983,9.0046718 C101.201983,9.12686721 101.158343,9.23596862 101.07106,9.3319793 C100.983778,9.42798998 100.870312,9.4759946 100.730661,9.4759946 C100.591009,9.4759946 100.477543,9.42798998 100.390261,9.3319793 C100.302978,9.23596862 100.259338,9.12686721 100.259338,9.0046718 C100.259338,8.88247639 100.302978,8.77337498 100.390261,8.6773643 C100.477543,8.58135362 100.591009,8.533349 100.730661,8.533349 C100.870312,8.533349 100.983778,8.58135362 101.07106,8.6773643 C101.158343,8.77337498 101.201983,8.88247639 101.201983,9.0046718 Z" id="path-13"></path>
    </defs>
    <g id="Page-1" stroke="none" stroke-width="1" fill="none" fill-rule="evenodd">
        <g id="New_LG_Logo" transform="translate(0.000000, -1.000000)" fill-rule="nonzero">
            <g id="Text" transform="translate(53.000000, 11.000000)">
                <path d="M10.7104,3.0771 L10.7104,12.4151 L12.0114,12.4151 L12.0114,0.8871 L10.6934,0.8871 L6.4944,7.1791 L2.2934,0.8871 L0.9764,0.8871 L0.9764,12.4151 L2.2454,12.4151 L2.2454,3.0941 L6.4444,9.2531 L6.5114,9.2531 L10.7104,3.0771 Z M20.7564,0.8051 L19.5384,0.8051 L14.2854,12.4151 L15.6174,12.4151 L16.9854,9.3691 L23.2604,9.3691 L24.6104,12.4151 L26.0114,12.4151 L20.7564,0.8051 Z M22.7494,8.1991 L17.4954,8.1991 L20.1304,2.3201 L22.7494,8.1991 Z M37.8184,12.4151 L34.2794,7.7041 C34.7274,7.6281 35.1464,7.4961 35.5294,7.3101 C35.9144,7.1231 36.2464,6.8901 36.5264,6.6101 C36.8064,6.3301 37.0244,6.0011 37.1774,5.6211 C37.3314,5.2421 37.4074,4.8111 37.4074,4.3291 C37.4074,3.8131 37.3084,3.3441 37.1104,2.9211 C36.9144,2.4971 36.6334,2.1361 36.2714,1.8331 C35.9084,1.5331 35.4724,1.2981 34.9614,1.1341 C34.4524,0.9691 33.8774,0.8871 33.2404,0.8871 L28.2824,0.8871 L28.2824,12.4151 L29.5844,12.4151 L29.5844,7.9361 L32.8774,7.9361 L36.2224,12.4151 L37.8184,12.4151 Z M36.0894,4.3781 C36.0894,4.7511 36.0154,5.0861 35.8674,5.3831 C35.7184,5.6791 35.5124,5.9301 35.2514,6.1321 C34.9874,6.3351 34.6734,6.4921 34.3104,6.6011 C33.9484,6.7121 33.5534,6.7661 33.1244,6.7661 L29.5844,6.7661 L29.5844,2.0891 L33.1414,2.0891 C34.0754,2.0891 34.7994,2.2891 35.3164,2.6891 C35.8324,3.0911 36.0894,3.6531 36.0894,4.3781 Z M44.8524,5.9271 L49.7934,0.8871 L48.1134,0.8871 L41.4924,7.7711 L41.4924,0.8871 L40.1904,0.8871 L40.1904,12.4151 L41.4924,12.4151 L41.4924,9.3191 L43.9464,6.8331 L48.3774,12.4151 L50.0064,12.4151 L44.8524,5.9271 Z M60.3664,0.8871 L52.0324,0.8871 L52.0324,12.4151 L60.4494,12.4151 L60.4494,11.2301 L53.3344,11.2301 L53.3344,7.1941 L59.6254,7.1941 L59.6254,6.0091 L53.3344,6.0091 L53.3344,2.0721 L60.3664,2.0721 L60.3664,0.8871 Z M67.4324,2.0891 L71.3024,2.0891 L71.3024,0.8871 L62.2444,0.8871 L62.2444,2.0891 L66.1144,2.0891 L66.1144,12.4151 L67.4324,12.4151 L67.4324,2.0891 Z M73.8554,12.4151 L75.1564,12.4151 L75.1564,0.8871 L73.8554,0.8871 L73.8554,12.4151 Z M87.0144,10.1261 L79.7514,0.8871 L78.5324,0.8871 L78.5324,12.4151 L79.8014,12.4151 L79.8014,2.9611 L87.2454,12.4151 L88.2824,12.4151 L88.2824,0.8871 L87.0144,0.8871 L87.0144,10.1261 Z M101.5234,10.8511 L101.5234,6.2561 L96.7634,6.2561 L96.7634,7.4261 L100.2714,7.4261 L100.2714,10.2901 C99.8774,10.6101 99.3874,10.8821 98.8064,11.1061 C98.2234,11.3301 97.6044,11.4441 96.9454,11.4441 C96.2434,11.4441 95.6114,11.3241 95.0504,11.0811 C94.4914,10.8401 94.0134,10.5051 93.6194,10.0761 C93.2224,9.6481 92.9184,9.1401 92.7044,8.5541 C92.4914,7.9671 92.3834,7.3271 92.3834,6.6341 C92.3834,5.9871 92.4944,5.3751 92.7124,4.7991 C92.9324,4.2221 93.2344,3.7201 93.6194,3.2921 C94.0024,2.8621 94.4634,2.5221 95.0024,2.2701 C95.5404,2.0171 96.1274,1.8901 96.7634,1.8901 C97.1694,1.8901 97.5414,1.9241 97.8774,1.9901 C98.2104,2.0561 98.5174,2.1471 98.7974,2.2621 C99.0784,2.3771 99.3384,2.5141 99.5804,2.6741 C99.8214,2.8331 100.0524,3.0121 100.2714,3.2081 L101.1124,2.2211 C100.8274,1.9781 100.5324,1.7631 100.2314,1.5701 C99.9284,1.3781 99.6054,1.2161 99.2594,1.0831 C98.9144,0.9521 98.5404,0.8531 98.1404,0.7881 C97.7384,0.7231 97.2964,0.6891 96.8124,0.6891 C95.9454,0.6891 95.1584,0.8501 94.4504,1.1761 C93.7414,1.4991 93.1344,1.9351 92.6304,2.4851 C92.1264,3.0341 91.7324,3.6701 91.4544,4.3941 C91.1734,5.1191 91.0324,5.8771 91.0324,6.6671 C91.0324,7.4911 91.1684,8.2651 91.4374,8.9901 C91.7064,9.7151 92.0944,10.3451 92.6054,10.8851 C93.1174,11.4211 93.7314,11.8441 94.4504,12.1521 C95.1684,12.4581 95.9844,12.6131 96.8964,12.6131 C97.8744,12.6131 98.7544,12.4401 99.5404,12.0951 C100.3254,11.7491 100.9854,11.3331 101.5234,10.8511 Z" id="Fill-1" fill="#54C0A9"></path>
                <g id="Create.--Elevate.--Engage." transform="translate(0.000000, 13.000000)">
                    <g id="Cr">
                        <use fill="#000000" xlink:href="#path-1"></use>
                        <use fill="#FFFFFF" xlink:href="#path-1"></use>
                    </g>
                    <g id="e">
                        <use fill="#000000" xlink:href="#path-2"></use>
                        <use fill="#FFFFFF" xlink:href="#path-2"></use>
                    </g>
                    <g id="at">
                        <use fill="#000000" xlink:href="#path-3"></use>
                        <use fill="#FFFFFF" xlink:href="#path-3"></use>
                    </g>
                    <g id="e">
                        <use fill="#000000" xlink:href="#path-4"></use>
                        <use fill="#FFFFFF" xlink:href="#path-4"></use>
                    </g>
                    <g id=".">
                        <use fill="#000000" xlink:href="#path-5"></use>
                        <use fill="#FFFFFF" xlink:href="#path-5"></use>
                    </g>
                    <g id="El">
                        <use fill="#000000" xlink:href="#path-6"></use>
                        <use fill="#FFFFFF" xlink:href="#path-6"></use>
                    </g>
                    <g id="e">
                        <use fill="#000000" xlink:href="#path-7"></use>
                        <use fill="#FFFFFF" xlink:href="#path-7"></use>
                    </g>
                    <g id="vat">
                        <use fill="#000000" xlink:href="#path-8"></use>
                        <use fill="#FFFFFF" xlink:href="#path-8"></use>
                    </g>
                    <g id="e">
                        <use fill="#000000" xlink:href="#path-9"></use>
                        <use fill="#FFFFFF" xlink:href="#path-9"></use>
                    </g>
                    <g id=".">
                        <use fill="#000000" xlink:href="#path-10"></use>
                        <use fill="#FFFFFF" xlink:href="#path-10"></use>
                    </g>
                    <g id="Engag">
                        <use fill="#000000" xlink:href="#path-11"></use>
                        <use fill="#FFFFFF" xlink:href="#path-11"></use>
                    </g>
                    <g id="e">
                        <use fill="#000000" xlink:href="#path-12"></use>
                        <use fill="#FFFFFF" xlink:href="#path-12"></use>
                    </g>
                    <g id=".">
                        <use fill="#000000" xlink:href="#path-13"></use>
                        <use fill="#FFFFFF" xlink:href="#path-13"></use>
                    </g>
                </g>
            </g>
            <circle id="Oval" fill="#FFFFFF" cx="22.99" cy="23.59" r="22.29"></circle>
            <g id="Circle" transform="translate(0.000000, 0.500000)">
                <path d="M23.0547,24.272 C24.9247,22.908 27.0707,22.116 29.4907,21.896 C31.4497,21.72 32.8347,22.27 33.6497,23.546 C33.9357,24.382 33.7377,24.898 33.0547,25.097 C32.4827,25.185 32.1087,24.844 31.9327,24.074 C31.8667,23.81 31.7577,23.656 31.6027,23.612 C30.8987,23.348 30.1727,23.216 29.4247,23.216 C27.2017,23.216 25.2657,24.151 23.6167,26.021 C22.6257,27.144 22.1307,28.342 22.1307,29.619 C22.1307,29.949 22.1747,30.278 22.2627,30.608 C22.3727,31.137 22.6367,31.615 23.0547,32.044 C23.4727,32.473 23.9247,32.743 24.4077,32.853 C24.6937,32.919 24.9697,32.952 25.2327,32.952 C25.9377,32.952 26.4437,32.721 26.7507,32.259 C26.6197,30.411 27.2017,29.157 28.5007,28.497 C28.8527,28.32 29.1607,28.232 29.4247,28.232 C29.6447,28.232 29.8537,28.287 30.0517,28.397 C30.2937,28.793 30.4147,29.223 30.4147,29.685 C30.4147,30.234 30.1397,31.038 29.5897,32.094 C29.4287,32.324 29.3187,32.699 29.2587,33.265 C28.5287,33.429 27.7937,33.556 27.0707,33.645 C24.9337,33.907 22.4017,33.876 20.3227,33 C19.7017,32.323 19.3907,31.504 19.3907,30.543 C19.3907,30.344 19.4127,30.136 19.4567,29.916 C19.7647,27.671 20.9647,25.79 23.0547,24.272 M29.0287,29.751 C28.4047,29.64 28.4387,30.691 28.5197,31.353 C28.8277,30.891 29.2087,30.195 29.1277,29.949 C29.0937,29.844 29.0967,29.763 29.0287,29.751 M45.2687,23.087 C45.2687,11.767 36.8217,2.415 25.8877,0.993 C26.4447,1.782 26.6747,2.984 26.5777,4.6 C26.3357,8.274 25.1907,12.377 23.1447,16.911 C21.2087,21.223 18.7887,24.953 15.8837,28.099 C17.3227,36.128 27.7497,34.945 33.4237,32.471 C33.6687,32.364 33.8197,32.614 33.8197,33.032 C33.8197,33.362 33.6637,33.499 33.4237,33.626 C32.2397,34.254 30.7747,34.777 29.1797,35.139 C29.2747,37.105 29.5637,40.403 29.9607,44.256 C38.8507,41.328 45.2687,32.956 45.2687,23.087" id="Fill-3" fill="#7F7F7F"></path>
                <path d="M18.7886,21.729 C22.3096,15.46 24.1356,9.154 24.2676,3.61 C24.2006,3.147 24.2076,2.651 24.0366,2.19 C23.7846,1.513 23.7276,1.333 23.3756,1.068 C22.9356,0.958 22.6386,0.936 22.4846,1.002 C20.2406,2.806 18.5576,5.59 17.4346,9.353 C15.7846,13.621 14.9996,18.836 14.9926,24.996 C14.9926,25.368 15.4656,25.841 15.6856,25.689 C16.2716,25.287 17.2476,23.885 18.7886,21.729 M14.0356,30.64 C12.5036,27.252 12.3856,24.865 12.3856,23.016 C12.3856,23.016 12.3476,21.343 12.3816,20.661 C12.4076,20.147 12.4106,19.705 12.4496,19.526 L12.5176,18.693 C13.4986,10.573 16.1346,4.659 20.4326,0.95 C9.3306,2.218 0.7056,11.647 0.7056,23.087 C0.7056,35.392 10.6836,45.37 22.9866,45.37 C24.5316,45.37 26.0396,45.213 27.4956,44.913 C26.9676,44.273 26.3676,43.455 25.6956,42.458 C24.4406,40.587 23.3186,39.388 22.3286,38.86 C21.9766,38.574 21.4706,38.123 20.8106,37.506 C20.2826,37 20.0186,36.461 20.0186,35.889 C20.0186,35.831 20.0206,35.771 20.0256,35.711 C20.5816,35.852 21.1486,35.959 21.7166,36.039 C21.7666,36.122 21.8386,36.215 21.9326,36.318 C22.8126,36.935 23.8036,37.88 24.9026,39.157 C25.0136,39.289 25.8936,40.389 27.5436,42.458 C27.4796,40.722 27.2476,37.892 26.9526,35.525 C21.8366,36.149 16.3126,35.094 14.0356,30.64" id="Fill-5" fill="#54C0A9"></path>
            </g>
        </g>
    </g>
</svg>